<?xml version="1.0" encoding="UTF-8" standalone="no"?>
<svg width="296.926mm" height="209.973mm"
 viewBox="0 0 3507 2480"
 xmlns="http://www.w3.org/2000/svg" xmlns:xlink="http://www.w3.org/1999/xlink"  version="1.2" baseProfile="tiny">
<desc>Generated with Qt</desc>
<defs>
</defs>
<g fill="none" stroke="black" stroke-width="1" fill-rule="evenodd" stroke-linecap="square" stroke-linejoin="bevel" >

<g fill="none" stroke="#000000" stroke-opacity="1" stroke-width="1" stroke-linecap="square" stroke-linejoin="bevel" transform="matrix(1,0,0,1,0,0)"
font-family="MS Shell Dlg 2" font-size="34.375" font-weight="400" font-style="normal" 
>
</g>

<g fill="none" stroke="#000000" stroke-opacity="1" stroke-width="1" stroke-linecap="square" stroke-linejoin="bevel" transform="matrix(1,0,0,1,0,0)"
font-family="MS Shell Dlg 2" font-size="34.375" font-weight="400" font-style="normal" 
>
</g>

<g fill="none" stroke="#000000" stroke-opacity="1" stroke-width="1" stroke-linecap="square" stroke-linejoin="bevel" transform="matrix(11.8081,0,0,11.8081,0,0)"
font-family="MS Shell Dlg 2" font-size="34.375" font-weight="400" font-style="normal" 
>
</g>

<g fill="none" stroke="#000000" stroke-opacity="1" stroke-width="1" stroke-linecap="square" stroke-linejoin="bevel" transform="matrix(0.999751,0,0,0.999751,0,0)"
font-family="MS Shell Dlg 2" font-size="34.375" font-weight="400" font-style="normal" 
>
</g>

<g fill="#ffffff" fill-opacity="1" stroke="none" transform="matrix(0.999751,0,0,0.999751,0,0)"
font-family="MS Shell Dlg 2" font-size="34.375" font-weight="400" font-style="normal" 
>
<path vector-effect="none" fill-rule="evenodd" d="M-2,-2 L3510,-2 L3510,2483 L-2,2483 L-2,-2"/>
</g>

<g fill="none" stroke="#000000" stroke-opacity="1" stroke-width="1" stroke-linecap="square" stroke-linejoin="bevel" transform="matrix(0.999751,0,0,0.999751,0,0)"
font-family="MS Shell Dlg 2" font-size="34.375" font-weight="400" font-style="normal" 
>
</g>

<g fill="none" stroke="#000000" stroke-opacity="1" stroke-width="1" stroke-linecap="square" stroke-linejoin="bevel" transform="matrix(11.8081,0,0,11.8081,0,0)"
font-family="MS Shell Dlg 2" font-size="34.375" font-weight="400" font-style="normal" 
>
</g>

<g fill="none" stroke="#000000" stroke-opacity="1" stroke-width="1" stroke-linecap="square" stroke-linejoin="bevel" transform="matrix(11.8081,0,0,11.8081,0,0)"
font-family="MS Shell Dlg 2" font-size="34.375" font-weight="400" font-style="normal" 
>
</g>

<g fill="none" stroke="#000000" stroke-opacity="1" stroke-width="1" stroke-linecap="square" stroke-linejoin="bevel" transform="matrix(11.8081,0,0,11.8081,0,0)"
font-family="MS Shell Dlg 2" font-size="34.375" font-weight="400" font-style="normal" 
>
</g>

<g fill="none" stroke="#000000" stroke-opacity="1" stroke-width="1" stroke-linecap="square" stroke-linejoin="bevel" transform="matrix(11.8081,0,0,11.8081,0,0)"
font-family="MS Shell Dlg 2" font-size="34.375" font-weight="400" font-style="normal" 
>
</g>

<g fill="none" stroke="#000000" stroke-opacity="1" stroke-width="1" stroke-linecap="square" stroke-linejoin="bevel" transform="matrix(11.8081,0,0,11.8081,0,0)"
font-family="MS Shell Dlg 2" font-size="34.375" font-weight="400" font-style="normal" 
>
</g>

<g fill="#ffffff" fill-opacity="1" stroke="none" transform="matrix(11.8081,0,0,11.8081,0,0)"
font-family="MS Shell Dlg 2" font-size="34.375" font-weight="400" font-style="normal" 
>
<rect x="0" y="0" width="297" height="210"/>
</g>

<g fill="none" stroke="#000000" stroke-opacity="1" stroke-width="1" stroke-linecap="square" stroke-linejoin="bevel" transform="matrix(11.8081,0,0,11.8081,0,0)"
font-family="MS Shell Dlg 2" font-size="34.375" font-weight="400" font-style="normal" 
>
</g>

<g fill="none" stroke="#000000" stroke-opacity="1" stroke-width="1" stroke-linecap="square" stroke-linejoin="bevel" transform="matrix(11.8081,0,0,11.8081,0,0)"
font-family="MS Shell Dlg 2" font-size="34.375" font-weight="400" font-style="normal" 
>
</g>

<g fill="#000000" fill-opacity="0" stroke="none" transform="matrix(0.999751,0,0,0.999751,0,0)"
font-family="MS Shell Dlg 2" font-size="34.375" font-weight="400" font-style="normal" 
>
<rect x="0" y="0" width="3508" height="2480"/>
</g>

<g fill="none" stroke="#ff7f00" stroke-opacity="1" stroke-width="3.07087" stroke-linecap="round" stroke-linejoin="bevel" transform="matrix(0.999751,0,0,0.999751,0,0)"
font-family="MS Shell Dlg 2" font-size="34.375" font-weight="400" font-style="normal" 
>
<path vector-effect="none" fill-rule="evenodd" d="M2747.55,369.161 L2747.13,370.461 L2737.49,369.491 L2715.07,374.825 L2688.39,393.026 L2664.75,400.317 L2639.65,415.695 L2617.86,432.417 L2621.32,462.464 L2607,480.801 L2580.11,484.189"/>
<path vector-effect="none" fill-rule="evenodd" d="M2695.86,1596.47 L2696.62,1596.55 L2697.71,1597.83 L2698.66,1598.94 L2699.91,1599.32 L2701.41,1599.76 L2702.89,1600.2 L2704.39,1600.64 L2706.05,1601.14 L2707.15,1601.47 L2708.07,1601.5 L2709.78,1601.57 L2710.99,1601.62 L2712.62,1601.69 L2714.23,1601.75 L2715.95,1601.82 L2717.58,1601.89 L2719.25,1601.96 L2720.9,1602.02 L2722.55,1602.09 L2723.86,1602.14 L2725.38,1602.21 L2726.68,1602.26 L2728.2,1602.32 L2729.5,1602.37 L2730.9,1602 L2732.62,1601.55 L2734.09,1601.16 L2735.71,1600.73 L2737.3,1600.31 L2738.93,1599.88 L2740.48,1599.47 L2742.07,1599.04 L2743.66,1598.62 L2745.21,1598.21 L2746.79,1597.79 L2748.4,1597.36 L2750.02,1596.94 L2751.35,1596.58 L2752.28,1596.34 L2753.98,1595.88 L2755.33,1595.53 L2757.05,1595.07 L2758.46,1594.7 L2759.64,1594.39 L2760.84,1594.07 L2762.56,1593.61 L2763.82,1593.28 L2765.27,1592.89 L2767,1593.5 L2768.41,1594 L2769.76,1594.47 L2771.39,1595.05 L2772.9,1595.58 L2774.05,1595.99 L2775.59,1596.53 L2777.11,1597.06 L2778.59,1597.58 L2779.8,1598.01 L2781.38,1598.57 L2782.94,1599.12 L2784.29,1599.59 L2785.93,1600.17 L2787.39,1600.68 L2788.74,1601.16 L2790.1,1601.64 L2791.49,1602.13 L2793.13,1602.71 L2794.28,1603.11 L2795.86,1603.67 L2797.03,1603.54 L2798.39,1603.4 L2799.95,1603.23 L2801.2,1603.09 L2802.98,1602.9 L2804.51,1602.73 L2806,1602.57 L2807.73,1602.38 L2809.05,1602.24 L2810.54,1602.07 L2812.14,1601.9 L2813.77,1601.72 L2815.45,1601.54 L2817.08,1601.36 L2818.75,1601.18 L2820.34,1600.96 L2821.89,1600.74 L2823.66,1600.49 L2825.17,1600.28 L2826.89,1600.04 L2828.46,1599.82 L2830.06,1599.59 L2831.44,1599.4 L2833.2,1599.15 L2834.74,1598.94 L2836.48,1598.69 L2837.85,1598.5 L2839.75,1598.23 L2841.15,1598.04 L2842.79,1597.81 L2844.23,1597.6 L2845.84,1597.38 L2846.63,1597.27 L2847.38,1597.16 L2848.73,1596.97 L2850.63,1596.71 L2851.69,1596.56 L2853.02,1596.3 L2853.2,1596.26 L2854.3,1596.05 L2856.01,1595.72 L2857.33,1595.46 L2858.74,1595.19 L2860.42,1594.86 L2861.75,1594.6 L2863.33,1594.3 L2864.99,1593.97 L2866.15,1593.75 L2867.94,1593.4 L2869.41,1593.11 L2871.04,1592.8 L2872.45,1592.52 L2874.22,1592.18 L2875.73,1591.89 L2876.67,1591.7 L2879.02,1591.25 L2879.96,1591.06 L2881.5,1590.76 L2883.25,1590.42 L2884.74,1590.13 L2886.53,1589.79 L2887.59,1589.59 L2889.36,1589.25 L2890.86,1588.96 L2892.62,1588.63 L2894.13,1588.34 L2895.37,1588.11 L2896.98,1587.8 L2898.34,1587.54 L2900.27,1587.18 L2901.61,1586.92 L2902.89,1586.68 L2904.28,1586.42 L2905.84,1586.12 L2907.49,1585.81 L2908.87,1585.54 L2910.25,1585.35 L2912.06,1585.1 L2913.42,1584.9 L2914.99,1584.68 L2916.74,1584.44 L2918.22,1584.23 L2920.05,1583.97 L2921.46,1583.77 L2923.16,1583.53 L2924.48,1583.35 L2925.96,1583.14 L2927.58,1582.91 L2929.18,1582.69 L2930.88,1582.45 L2932.49,1582.22 L2934.14,1581.99 L2935.77,1581.76 L2937.16,1581.56 L2938.73,1581.31 L2940.28,1581.15 L2941.73,1580.98 L2943.54,1580.76 L2945.01,1580.58 L2946.78,1580.36 L2948.32,1580.18 L2950,1579.97 L2951.6,1579.78 L2953.24,1579.58 L2954.79,1579.39 L2956.52,1579.18 L2958.08,1578.99 L2959.2,1578.85 L2961.01,1578.63 L2962.5,1578.45 L2964.25,1578.24 L2965.7,1578.06 L2967.32,1577.86 L2969.01,1577.66 L2970.11,1577.52 L2970.76,1577.44 L2972.29,1577.26 L2972.32,1576.17 L2972.36,1574.47 L2972.38,1573.58 L2972.88,1572.39 L2973.56,1570.79 L2974.17,1569.35 L2974.78,1567.9 L2975.45,1566.3 L2975.96,1565.08 L2976.67,1563.41 L2977.23,1562.07 L2977.81,1560.7 L2978.53,1560.06 L2979.46,1559.24 L2980.83,1558.03 L2981.83,1557.15 L2982.35,1556.31 L2982.87,1555.48 L2982.68,1554.5 L2982.62,1554.19"/>
<path vector-effect="none" fill-rule="evenodd" d="M2983.48,1554.71 L2983.48,1555.22 L2983.26,1556.22 L2983.22,1556.89 L2983.82,1557.72 L2984.58,1558.76 L2984.97,1559.3 L2985.8,1560.07 L2986.66,1560.87 L2987.42,1561.58 L2988.36,1562.46 L2989.16,1563.2 L2990.02,1564.01 L2990.89,1564.82 L2991.76,1565.64 L2992.63,1566.45 L2993.5,1567.25 L2994.38,1568.08 L2995.23,1568.87 L2996.1,1569.69 L2996.98,1570.51 L2997.78,1571.4 L3000.52,1577.27 L3004.98,1581.81 L3005.72,1581.77"/>
<path vector-effect="none" fill-rule="evenodd" d="M2983.63,1554.6 L2983.61,1555.21 L2983.39,1556.2 L2983.49,1556.89 L2984.08,1557.75 L2984.6,1558.5 L2985.09,1559.2 L2985.88,1559.93 L2986.75,1560.75 L2987.56,1561.5 L2988.45,1562.33 L2989.07,1562.91 L2989.95,1563.73 L2990.81,1564.54 L2991.7,1565.36 L2992.56,1566.17 L2993.36,1566.91 L2994.14,1567.64 L2994.85,1568.31 L2995.53,1568.94 L2996.34,1569.7 L2997.09,1570.4 L2997.87,1570.92 L2999.76,1569.82 L3001.7,1568.75 L3022.19,1562.7 L3028.24,1565.77 L3038.53,1564.75 L3051.88,1563.55 L3052.07,1563.83 L3065.73,1562.47 L3112.43,1543.26 L3132.63,1546.09 L3148.67,1547.96 L3175.92,1541.51 L3194.23,1533.95 L3216.48,1530.23 L3247.67,1534.04 L3321.56,1532.76 L3365.38,1523.96 L3383.55,1515.84 L3402.18,1503.8 L3431,1485.05 L3442.16,1484.35 L3445.49,1484.14 L3449.32,1483.9 L3458.79,1488.49"/>
<path vector-effect="none" fill-rule="evenodd" d="M2243.72,1010.29 L2245.75,1010.97 L2272.47,1025.5 L2397.96,1035.42 L2452.44,1036.63 L2452.65,1036.63"/>
<path vector-effect="none" fill-rule="evenodd" d="M2108.5,1084.46 L2104.96,1084.79 L2047.67,1055.24 L2010.69,1046.5 L1961.09,1102.25 L1959.79,1103.41 L1953.25,1106.67 L1943.88,1129.7 L1939.59,1134.95 L1896.68,1149.96 L1826.29,1277.1 L1824.4,1279.37 L1774.28,1340.49 L1740.21,1344.34 L1737.96,1346.58 L1736.93,1347.64 L1717.38,1367.59 L1696.5,1370.55 L1678.68,1382.25 L1626.36,1462.49 L1627.13,1481.66 L1619.33,1492.33 L1616.55,1505.41 L1615.52,1505.45 L1615.27,1505.43"/>
<path vector-effect="none" fill-rule="evenodd" d="M3148.67,1547.96 L3149.53,1543.65 L3149.75,1540.3 L3149.9,1536.35 L3151.2,1534.07 L3149.43,1528.84 L3148.26,1511.7 L3145.99,1509.19 L3144.41,1508.27 L3144.19,1505.39"/>
<path vector-effect="none" fill-rule="evenodd" d="M2937.93,1425.29 L2921.73,1443.87 L2920.86,1451.04 L2919.38,1456.18 L2921.67,1462.05 L2924.5,1469.3 L2924.26,1479.92 L2917.18,1498.53 L2923.51,1512.21 L2932.54,1521.37 L2943.36,1523.52 L2955.61,1542.6 L2959.97,1543.26 L2971.81,1547.54 L2980.07,1553.75 L2983.03,1553.87"/>
<path vector-effect="none" fill-rule="evenodd" d="M2311.92,1349.11 L2315.4,1364.61 L2324.62,1378.45 L2327.54,1385.49 L2326.16,1387.95 L2326.16,1390.92 L2328.01,1391.92 L2330.55,1393.3 L2331.66,1394.53 L2331.55,1399.25 L2329.27,1408.33 L2327.52,1412.39 L2331,1416.54 L2332.69,1426.34 L2333.43,1431.97 L2346.17,1445.21 L2356.82,1460.6 L2357.7,1471.4 L2355.64,1483.56 L2355.64,1498.4 L2352.21,1505.43 L2352.21,1512.79 L2351.32,1533 L2349.97,1540.72 L2333.56,1550.14 L2292.5,1572.39 L2293.96,1583.67 L2288.24,1591.9 L2274.09,1591.9 L2252.79,1615.05 L2238.09,1640.36 L2245.99,1657.07 L2245.99,1667.96 L2255.97,1674.14 L2280.62,1682.86 L2277.66,1694.36 L2291.99,1706 L2307.74,1703.36 L2326.62,1701.72 L2334.47,1703.59 L2343.26,1714.67 L2346.57,1719.29"/>
<path vector-effect="none" fill-rule="evenodd" d="M2346.63,1719.51 L2346.62,1720.01 L2345.24,1721.08 L2340.58,1724.64 L2340.07,1725.03 L2334.69,1728.83 L2333.33,1731.24 L2332.84,1732.1 L2328.56,1735.21 L2323.67,1738.76 L2319.43,1744.76 L2315.73,1750.33 L2312.65,1758.65 L2312.44,1765.56 L2312.34,1774.11 L2312.24,1782.9 L2311.06,1788.74 L2309.79,1795.04 L2308.44,1801.7 L2308.46,1804.04 L2308.93,1808.06 L2309.5,1813.08 L2310.37,1820.61 L2311.12,1823.28 L2313.77,1832.67 L2315.5,1838.08 L2317.33,1843.8 L2317.63,1851.14 L2317.66,1852.19 L2317.53,1857.15 L2316.96,1859.66 L2316.25,1862.82 L2315.95,1870.97 L2317.64,1878.13 L2317.87,1881.32 L2318.14,1885.17 L2316.61,1887.63 L2315.46,1889.47 L2314.85,1891.89 L2310.73,1895.32 L2309.43,1897.61 L2305.74,1900.36 L2299.77,1904.81 L2299.28,1905.11 L2295.94,1906.42 L2294.62,1906.95 L2290.59,1911.33 L2288.82,1913.25 L2286.54,1915.73 L2285.76,1922.77 L2285.14,1928.43 L2283.49,1931.37 L2280.44,1936.83 L2280.58,1940.31 L2280.84,1946.71 L2280.95,1949.35 L2280.78,1952.38 L2280.89,1953.53 L2280.84,1953.59"/>
<path vector-effect="none" fill-rule="evenodd" d="M2346.47,1719.36 L2346.11,1718.87 L2345.44,1717.96 L2344.88,1717.16 L2344.52,1716.66 L2344.09,1716.07 L2343.59,1715.38 L2343.16,1714.75 L2342.5,1714.79 L2341.57,1714.81 L2340.31,1714.86 L2339.88,1714.22 L2339.41,1713.55 L2338.95,1712.85 L2338.61,1712.34 L2338.25,1711.8 L2337.68,1710.98 L2337.21,1710.28 L2336.78,1709.64 L2336.3,1708.94 L2335.87,1708.29 L2335.41,1707.64 L2334.93,1706.93 L2334.54,1706.34 L2334.07,1705.68 L2333.48,1704.79 L2332.48,1704.46 L2331.79,1704.24 L2331.06,1704 L2330.57,1703.83 L2329.9,1703.61 L2329.4,1703.44 L2328.86,1703.27 L2328.15,1703.02 L2327.49,1702.79 L2326.57,1702.46 L2325.58,1702.5 L2324.63,1702.56 L2323.82,1702.61 L2323.01,1702.65 L2322.12,1702.69 L2321.21,1702.74 L2320.39,1702.79 L2319.55,1702.83 L2318.74,1702.96 L2317.98,1703.07 L2317.27,1703.16 L2316.5,1703.27 L2315.58,1703.41 L2314.71,1703.53 L2313.99,1703.63 L2313.21,1703.75 L2312.41,1703.87 L2311.57,1703.99 L2310.78,1704.1 L2309.97,1704.22 L2309.13,1704.34 L2308.04,1704.57 L2307.19,1704.74 L2306.61,1704.87 L2305.87,1705.01 L2305.2,1705.16 L2304.7,1705.26 L2304.05,1705.38 L2303.44,1705.49 L2302.63,1705.64 L2301.83,1705.79 L2300.99,1705.95 L2300.17,1706.1 L2299.38,1706.24 L2298.61,1706.39 L2297.86,1706.53 L2297.05,1706.68 L2296.16,1706.84 L2295.35,1707 L2294.58,1707.14 L2293.79,1707.29 L2292.93,1707.44 L2292.46,1707.53 L2291.71,1707.68 L2291.11,1707.15 L2290.5,1706.6 L2289.99,1706.14 L2289.39,1705.61 L2288.64,1704.94 L2288.16,1704.5 L2287.49,1703.91 L2285.99,1702.71 L2285.5,1702.33 L2284.68,1701.96 L2284.03,1701.64 L2283.38,1701.35 L2282.74,1701.06 L2281.98,1700.72 L2281.21,1700.36 L2280.48,1700.02 L2279.76,1699.68 L2279.12,1699.42 L2278.33,1698.84 L2277.67,1698.37 L2277.04,1697.91 L2276.39,1697.44 L2275.64,1696.89 L2275.08,1696.47 L2274.39,1695.98 L2273.76,1695.5 L2272.94,1694.91 L2272.14,1694.36 L2271.62,1693.99 L2271.18,1693.66 L2270.33,1693.07 L2269.56,1693.28 L2268.7,1693.55 L2268.02,1693.75 L2267.25,1693.98 L2266.43,1694.22 L2265.67,1694.44 L2264.75,1694.73 L2263.62,1695.07 L2262.69,1695.35 L2262.03,1695.56 L2261.56,1695.69 L2260.96,1695.87 L2260.18,1696.03 L2259.45,1696.17 L2258.68,1696.34 L2257.63,1696.54 L2256.8,1696.7 L2256.1,1696.84 L2255.27,1697.02 L2254.56,1697.16 L2254.02,1697.26 L2253.35,1697.4 L2252.73,1697.52 L2251.7,1697.73 L2251,1697.88 L2250.14,1698.05 L2249.36,1698.22 L2248.7,1698.35 L2248.17,1698.46 L2247.59,1698.58 L2247.13,1698.68 L2246.31,1698.85 L2245.39,1699.03 L2244.7,1699.17 L2244.2,1699.28 L2243.46,1699.42 L2242.51,1699.61 L2241.64,1699.79 L2240.8,1699.96 L2240.03,1700.12 L2239.4,1700.25 L2238.35,1700.47 L2237.6,1700.62 L2236.89,1700.75 L2236.38,1700.85 L2235.86,1700.97 L2235.11,1701.12 L2234.53,1701.24 L2234.07,1701.3 L2233.17,1701.45 L2232.15,1701.59 L2231.38,1701.72 L2230.64,1701.82 L2229.66,1701.96 L2228.92,1702.26 L2228.26,1702.5 L2227.58,1702.77 L2226.59,1703.16 L2225.98,1703.4 L2225.22,1703.69 L2224.23,1704.08 L2223.6,1704.33 L2222.85,1704.62 L2222.06,1704.92 L2221.45,1705.17 L2220.67,1705.46 L2219.9,1705.76 L2218.98,1706.13 L2217.75,1706.38 L2216.5,1706.62 L2216.1,1706.71 L2215.29,1706.87 L2214.3,1707.06 L2213.18,1707.3 L2212.64,1707.4 L2212.01,1707.53 L2211.21,1707.55 L2209.95,1707.59 L2208.86,1707.61 L2208.19,1707.65 L2207.44,1707.66 L2206.73,1707.67 L2205.95,1707.69 L2205.06,1707.72 L2203.86,1707.76 L2203.24,1707.77 L2202.49,1707.8 L2201.61,1707.82 L2200.91,1707.84 L2200.05,1707.85 L2199.11,1707.87 L2198.15,1707.93 L2197.24,1707.95 L2196.51,1707.97 L2195.84,1707.98 L2195.07,1707.98 L2194.4,1708.01 L2193.58,1707.88 L2192.86,1707.78 L2192.06,1707.67 L2191.22,1707.55 L2190.46,1707.45 L2189.68,1707.33 L2188.86,1707.22 L2188.16,1707.11 L2187.11,1706.97 L2186.43,1706.87 L2185.5,1706.75 L2184.76,1706.65 L2183.98,1706.54 L2183.18,1706.43 L2182.43,1706.33 L2181.59,1706.21 L2180.65,1706.08 L2179.9,1705.98 L2179.13,1705.87 L2178.36,1705.77 L2177.69,1705.67 L2176.9,1705.56 L2176.18,1705.46 L2175.59,1705.38 L2174.94,1705.29 L2174,1705.16 L2173.33,1705.07 L2172.53,1704.96 L2171.6,1704.84 L2171.01,1704.75 L2169.93,1704.61 L2169.05,1704.48 L2168.2,1704.37 L2167.64,1704.29 L2166.89,1704.18 L2166.11,1703.83 L2165.62,1703.61 L2164.63,1703.17 L2163.94,1702.85 L2163.3,1702.56 L2162.65,1702.27 L2161.82,1701.89 L2161.12,1701.58 L2160.56,1701.32 L2160.03,1701.08 L2159.42,1700.81 L2158.36,1700.32 L2157.74,1700.04 L2157.08,1699.75 L2156.45,1699.46 L2155.85,1699.19 L2155.23,1698.91 L2154.18,1698.44 L2153.43,1698.11 L2152.78,1697.81 L2152.16,1697.53 L2151.44,1697.2 L2150.6,1696.82 L2149.75,1696.44 L2148.94,1696.06 L2148.36,1695.81 L2147.57,1695.5 L2146.74,1695.16 L2146.09,1694.87 L2145.05,1694.44 L2144.39,1694.16 L2143.84,1693.96 L2142.99,1693.6 L2142.32,1693.3 L2141.86,1693.13 L2141.25,1692.87 L2140.54,1692.58 L2139.56,1692.18 L2138.91,1691.91 L2138.21,1691.61 L2137.07,1691.14 L2136.49,1690.9 L2136.15,1690.77 L2135.6,1690.62 L2135.19,1690.54 L2134.15,1690.31 L2133.24,1690.08 L2132.45,1689.91 L2131.84,1689.76 L2131.13,1689.59 L2130.09,1689.35 L2129.1,1689.13 L2128.47,1688.97 L2127.79,1688.8 L2127.12,1688.6 L2126.42,1688.39 L2125.71,1688.18 L2124.93,1687.93 L2124.28,1687.73 L2123.35,1687.43 L2122.6,1687.23 L2122,1687.01 L2121.25,1686.79 L2120.52,1686.56 L2119.87,1686.36 L2119.12,1686.13 L2118.38,1686.37 L2117.67,1686.59 L2116.91,1686.85 L2116.4,1687.02 L2115.93,1687.16 L2115.3,1687.38 L2114.38,1687.67 L2113.74,1687.89 L2112.96,1688.14 L2112.26,1688.37 L2111.59,1688.59 L2110.8,1688.84 L2110.04,1689.1 L2109.11,1689.16 L2108.2,1689.25 L2107.53,1689.31 L2107.08,1689.34 L2105.85,1689.46 L2105.33,1689.5 L2104.76,1689.54 L2104.18,1689.58 L2103.87,1689.61 L2103.25,1689.65 L2102.08,1689.77 L2101.41,1689.83 L2101.11,1689.81 L2099.9,1689.72 L2099.17,1689.67 L2098.26,1689.62 L2097.2,1689.56 L2096.41,1689.5 L2095.7,1689.49 L2094.91,1689.43 L2094.21,1689.4 L2093.65,1688.97 L2092.97,1688.47 L2092.42,1688.05 L2091.81,1687.6 L2091.47,1686.99 L2091.06,1686.27 L2090.63,1685.51 L2089.88,1684.94 L2089.4,1684.58 L2088.83,1684.13 L2088.22,1683.65 L2087.62,1683.18 L2087.19,1682.85 L2086.48,1682.62 L2085.77,1682.4 L2085.04,1682.18 L2084.47,1682.01 L2083.77,1681.8 L2083.02,1681.97 L2082.16,1682.18 L2081.32,1682.39 L2080.52,1682.57 L2079.77,1682.74 L2079.01,1682.91 L2078.26,1683.09 L2077.48,1683.27 L2076.67,1683.47 L2075.86,1683.67 L2075.06,1683.86 L2073.85,1684.14 L2073.38,1684.25 L2072.45,1684.47 L2071.84,1684.61 L2071.27,1685.1 L2070.54,1685.74 L2070.02,1686.2 L2069.27,1686.85 L2068.76,1687.3 L2068.22,1687.77 L2067.64,1688.28 L2067.13,1688.74 L2066.18,1689.56 L2065.89,1689.81 L2065.33,1689.64 L2064.56,1689.42 L2063.93,1689.24 L2063.07,1689 L2062.51,1688.84 L2061.33,1688.48 L2060.68,1688.41 L2060.04,1688.34 L2059.21,1688.23 L2057.95,1688.09 L2057.4,1688.03 L2056.59,1687.95 L2055.85,1687.85 L2054.87,1687.55 L2054.24,1687.36 L2053.09,1687.01 L2052.22,1686.75 L2051.61,1686.56 L2051.19,1686.43 L2050.34,1686.19 L2049.48,1685.92 L2048.91,1685.87 L2047.65,1685.77 L2046.98,1685.71 L2046.4,1685.66 L2045.45,1685.57 L2044.88,1685.53 L2044.03,1685.46 L2043.5,1685.41 L2042.87,1685.36 L2041.62,1685.25 L2041.13,1685.21 L2040.47,1685.15 L2039.46,1685.07 L2038.64,1684.99 L2038.52,1685.08"/>
<path vector-effect="none" fill-rule="evenodd" d="M2711.9,1628.35 L2710.44,1628.31 L2708.01,1627.89 L2701.79,1629.12 L2695.33,1633.34 L2694.49,1633.9 L2693.95,1636.37 L2692.83,1640.66 L2691.76,1644.9 L2690.09,1651.46 L2690.1,1652.95 L2690.69,1653.5 L2691.88,1653.9"/>
<path vector-effect="none" fill-rule="evenodd" d="M2452.44,1036.67 L2452.79,1045.45 L2454.55,1052.63 L2456.25,1062.02 L2497.36,1073.86 L2519.14,1108.31 L2581.24,1119.08 L2626.45,1149.14 L2638.93,1154.55 L2658.09,1192.04 L2660.42,1206.32 L2657.85,1224.73 L2661.75,1237.23 L2663.4,1291.46 L2662.22,1312.06 L2665.85,1319.65 L2663.78,1354.68 L2670.26,1373.23 L2682.86,1386.17 L2689.35,1430.78 L2682.83,1442.05 L2682.04,1447.51 L2677.92,1452.8 L2677.86,1452.87 L2685.19,1483.18 L2683.93,1532.75 L2681.85,1548.94 L2678.71,1558.02 L2677.9,1582.22 L2683.23,1589.68 L2689.17,1602.05 L2690.32,1602.14 L2691.41,1601.63 L2693.16,1596.17 L2695.86,1596.47"/>
<path vector-effect="none" fill-rule="evenodd" d="M2563.6,714.965 L2565.61,713.382 L2593.02,721.251 L2612.08,734.359 L2692.22,717.323 L2753.31,683.948 L2773.19,683.948 L2782.4,692.292 L2813.42,693.984 L2829.4,701.888 L2846.69,707.465 L2851.75,706.939 L2853.55,708.914 L2853.48,714.502 L2858.19,718.21 L2859.36,718.18 L2859.93,718.063 L2860.23,717.571 L2861.38,717.458 L2862.18,717.258"/>
<path vector-effect="none" fill-rule="evenodd" d="M2563.51,714.869 L2562.65,711.82 L2560.81,710.31 L2556.95,709.575 L2553.59,710.08 L2552.26,710.524 L2551.53,710.241 L2551.19,709.475 L2538.58,696.364 L2491.03,669.588 L2433.59,632.15 L2411.39,610.599 L2398.34,591.884 L2386.02,579.564 L2382,576.288"/>
<path vector-effect="none" fill-rule="evenodd" d="M2695.86,1596.47 L2693.33,1596.35 L2691.59,1601.79 L2690.36,1602.36 L2689.02,1602.26 L2685.96,1595.87 L2684.76,1595.81 L2680.56,1595.63 L2676.59,1600.15 L2676.3,1605.28 L2673.39,1618.04 L2661.55,1629.38 L2636.6,1635.44 L2624.52,1674.87 L2622.93,1680.06 L2607.31,1686.72 L2582.27,1700.71 L2565.91,1712.53 L2518.55,1743.77 L2509.92,1749.03 L2486.2,1767.58 L2463.91,1783.52 L2451.16,1801.9 L2431.58,1816.45 L2419.35,1832.76 L2409.8,1848.81 L2367.79,1855.22 L2364.84,1874.74 L2359.75,1882.94 L2342.09,1921.31 L2326.92,1932.24 L2326.52,1932.53 L2311.76,1943.16 L2281.74,1952.69 L2280.9,1952.96 L2280.93,1953.08"/>
<path vector-effect="none" fill-rule="evenodd" d="M2691.76,1653.97 L2691.07,1653.79 L2690.25,1653.57 L2689.6,1652.42 L2688.54,1652.27 L2687.4,1652.11 L2686.54,1651.99 L2685.76,1651.88 L2684.61,1651.33 L2684.11,1651.09 L2682.3,1650.75 L2682.32,1650.22 L2682.34,1649.27 L2682.37,1648.11 L2682.39,1647.41 L2683.07,1646.1 L2682.67,1645.3 L2682.13,1644.2 L2681.68,1643.28 L2681.8,1642.55 L2681.93,1641.74 L2682.07,1640.81 L2682.76,1640.02 L2683.46,1639.19 L2684.1,1638.46 L2684.86,1637.57 L2685.54,1636.78 L2686.22,1635.99 L2686.15,1635.16 L2686.07,1634.29 L2686.92,1633.46 L2687.77,1632.62 L2688.61,1631.79 L2689.43,1630.99 L2690.36,1630.29 L2691.27,1629.61 L2692.2,1628.9 L2693.06,1628.25 L2693.79,1628.15 L2694.89,1628 L2695.42,1627.86 L2695.1,1626.7 L2694.79,1625.55 L2694.49,1624.44 L2694.16,1623.24 L2693.86,1622.16 L2693.65,1621.16 L2693.38,1619.89 L2693.15,1618.82 L2692.92,1617.7 L2692.66,1616.5 L2692.42,1615.36 L2692.21,1614.38 L2691.94,1613.1 L2691.72,1612.04 L2691.47,1610.86 L2691.48,1609.88 L2691.51,1608.63 L2691.53,1607.48 L2691.55,1606.25 L2691.57,1605.23 L2691.58,1604.58 L2691.61,1602.95 L2691.62,1602.21 L2692.42,1601.37 L2693.22,1600.51 L2694.06,1599.62 L2694.74,1598.9 L2695.46,1598.6 L2696.63,1598.11 L2696.54,1597.23 L2695.86,1596.47"/>
<path vector-effect="none" fill-rule="evenodd" d="M1684.19,2277.42 L1698.71,2265.38 L1701.87,2266.62 L1742.75,2282.7 L1793.05,2291.12"/>
<path vector-effect="none" fill-rule="evenodd" d="M2580.12,484.257 L2582.83,501.095 L2594.63,553.872 L2610.4,598.901 L2646.09,586.964 L2677.74,598.879 L2727.03,627.077 L2756.66,663.367 L2769.09,662.562 L2823.96,693.049 L2848.77,703.437 L2853.71,708.857 L2853.63,714.43 L2858.25,718.058 L2859.34,718.028 L2859.84,717.928 L2860.13,717.423 L2861.36,717.306 L2862.14,717.11"/>
<path vector-effect="none" fill-rule="evenodd" d="M2712.49,1628.54 L2712.68,1628.54 L2713.83,1628.33 L2721.17,1628.06 L2724.84,1632.26 L2726.08,1635.1 L2726.34,1636.85 L2727.49,1639.18 L2727.49,1639.59"/>
<path vector-effect="none" fill-rule="evenodd" d="M2692.4,1654.15 L2693.41,1653.82 L2694.76,1654.36 L2706.87,1655.21 L2710.11,1655.05 L2712.61,1653.2 L2713.02,1652.44 L2713.07,1651.98 L2713.2,1650.32 L2713.25,1649.42 L2713.51,1648.87 L2715.56,1647.35 L2716.42,1647.21 L2717.71,1647.12 L2720.55,1643.87 L2724.38,1642.04 L2727.33,1641.46 L2727.94,1641.04 L2728.17,1640.27 L2727.7,1639.67"/>
<path vector-effect="none" fill-rule="evenodd" d="M2281.65,1953.41 L2280.72,1958.96 L2280.82,1960.2 L2281.94,1974.02 L2277.74,1991.77 L2274.55,2018.42 L2269.15,2026.97 L2255.12,2032.29 L2229.91,2085.13 L2209.68,2097.87 L2210.28,2102.47 L2209.99,2115.64 L2197.71,2138.99 L2195.41,2152.89 L2190.24,2175.23 L2191.86,2186.56 L2189.76,2196.99 L2184.86,2201.61 L2171.75,2220.55 L2160.79,2230.19 L2153.17,2250.87 L2152.17,2264.31 L2154.14,2272.66 L2151.66,2276.48"/>
<path vector-effect="none" fill-rule="evenodd" d="M2280.83,1953.92 L2280.39,1959.19 L2280.82,1960.2 L2286.49,1973.45 L2278.8,1993.93 L2275.9,2008.91 L2274.69,2019.39 L2269.39,2027.87 L2263.28,2036.32 L2258.36,2042.14 L2257.84,2050.57 L2255.3,2058.32 L2227.91,2097.23 L2217.29,2113.24 L2205.14,2146.65 L2199.51,2178.29 L2200.07,2191.75 L2191.85,2202.32 L2185.26,2220.63 L2178.4,2245.07 L2160.24,2276.43"/>
<path vector-effect="none" fill-rule="evenodd" d="M1761.22,2082.22 L1762.11,2081.56 L1783.31,2075.06 L1810.15,2054.02 L1813.49,2049.92 L1820.12,2046.38 L1835.49,2040.8 L1855.14,2040.57 L1871.53,2039.97 L1876.86,2033.31 L1881.8,2028.92 L1885.45,2027.62 L1896.29,2035.57 L1916.25,2031.85 L1935.45,2032.88 L1944.74,2030.03 L1952.56,2023.8 L1964.74,2018.8 L2005.02,1994 L2048.95,1975.16 L2071.54,1971.45 L2103.01,1978.18 L2112.93,1978.17 L2126.69,1988.99 L2145.39,1985.49 L2166.93,1982.39 L2173.07,1980.2 L2195.51,1976.01 L2206.11,1963.79 L2264.29,1957.19 L2278.13,1953.36 L2279.96,1952.85 L2280.78,1953.55"/>
<path vector-effect="none" fill-rule="evenodd" d="M1683.8,2277.54 L1698.53,2265.32 L1711.04,2237.6 L1710.72,2224.29 L1719.86,2208.41 L1722.61,2195.23 L1712.38,2188.5 L1723.14,2165.49 L1723.22,2160.94 L1723.32,2154.84 L1718.11,2145.65 L1719.7,2141.64 L1726.22,2138.3 L1739.81,2140.85 L1744.1,2120.84 L1760.01,2108.89 L1760.31,2092.89 L1760.18,2090.25 L1760.16,2085.36 L1758.23,2083.45 L1758.42,2083.05"/>
<path vector-effect="none" fill-rule="evenodd" d="M2691.72,1654.06 L2690.1,1653.73 L2689.31,1654.55 L2687.04,1655.27 L2683.03,1654.87 L2680.57,1655.64 L2680.63,1658.88 L2675.41,1675.51 L2675.64,1677.09 L2680.89,1712.03 L2689.69,1725.43 L2689.29,1726 L2689.99,1727.65 L2691.61,1728.56 L2683.45,1738.05 L2679.27,1740.34 L2673.68,1738.35 L2672.72,1740.77 L2673.84,1742.83 L2671.89,1743.79 L2669.58,1743.18 L2666.61,1743.4 L2664.76,1744.79 L2661.19,1743.77 L2657.27,1745.91 L2652.41,1754.39"/>
<path vector-effect="none" fill-rule="evenodd" d="M2691.72,1654.05 L2690.1,1653.73 L2689.31,1654.54 L2687.05,1655.26 L2685.93,1655.15 L2683.02,1654.84 L2680.61,1655.62 L2676.52,1656.88 L2675.07,1657.68 L2672.79,1658.92 L2669.64,1660.61 L2666.94,1662.02 L2663.19,1664.13 L2662.17,1664.7 L2660.23,1665.76 L2658.89,1665.64 L2653.59,1665.18 L2651.82,1665.77 L2650.07,1666.33 L2647.5,1667.17 L2646.64,1667.66 L2645.48,1668.03 L2644.97,1667.99 L2641.73,1669.03 L2638.47,1670.08 L2632.16,1672.17 L2624.52,1674.87 L2623.13,1675.35 L2621.25,1676.02 L2620.6,1676.5 L2619.7,1677.21 L2618.54,1678.13 L2613.15,1678.64 L2610.59,1678.86 L2608.4,1679.21 L2605.62,1679.63 L2604.62,1679.81 L2602.37,1681.67 L2601.16,1681.28 L2599.11,1680.6 L2597.28,1679.96 L2592.55,1679.47 L2591.55,1679.24 L2589.33,1678.73 L2585.75,1677.91 L2584.58,1677.66 L2580.6,1676.7 L2578.5,1676.21 L2575.49,1673.8 L2574.57,1673.4 L2572.29,1672.37 L2571.05,1671.78 L2565.07,1671.76 L2557.77,1671.78 L2556.11,1671.73 L2550.18,1670.63 L2543.62,1671.26 L2536.72,1671.62 L2531.59,1671.88 L2528.29,1673.1 L2525.72,1674.08 L2523.94,1674.75 L2523.44,1675.15 L2521.35,1676.72 L2514.88,1675.4 L2509.94,1674.89 L2507.77,1674.77 L2505.4,1674.63 L2504.02,1675.07 L2500.81,1676.04 L2499.23,1676.37 L2493.68,1677.53 L2491.71,1677.78 L2486.77,1678.51 L2478.24,1682.15 L2473.03,1681.05 L2471.43,1680.76 L2465.81,1683.85 L2464.13,1685.28 L2460.38,1686.38 L2457.72,1687.15 L2455.82,1688.97 L2454.58,1690.23 L2453.9,1690.47 L2451.2,1691.49 L2447.43,1692.89 L2441.38,1695.15 L2439.24,1695.94 L2436.74,1696.85 L2435.31,1698.68 L2434.33,1699.93 L2433.14,1701.42 L2430.33,1702.75 L2426.3,1704.66 L2422.12,1706.64 L2415.84,1709.58 L2415.11,1709.67 L2411.29,1710.1 L2404.44,1711.03 L2401.86,1711.47 L2396.77,1712.36 L2393.12,1713 L2389.03,1713.69 L2387.84,1713.88 L2385.43,1713.36 L2383.7,1712.99 L2375.24,1711.12 L2373.99,1710.84 L2371.26,1710.29 L2366.04,1712.16 L2363.94,1712.94 L2361.56,1713.75 L2359.18,1714.07 L2355.34,1715.39 L2353.94,1715.82 L2351.6,1716.6 L2349.39,1718.39 L2347.26,1719.15 L2346.73,1719.31"/>
<path vector-effect="none" fill-rule="evenodd" d="M2886.69,1614.1 L2937.68,1623.91 L2972.14,1601.22 L2984.13,1596.52 L2991.74,1593.06 L3006.41,1582.22"/>
<path vector-effect="none" fill-rule="evenodd" d="M2727.61,1639.46 L2733.97,1633.46 L2743.43,1629.75 L2743.17,1624.73 L2743.35,1622.88 L2764.65,1619.68 L2775.66,1618.03 L2778.26,1617.03 L2780.62,1615.35 L2784.58,1615.77 L2817.03,1611.17 L2824.89,1610.05 L2838.89,1612.35 L2877.87,1608.29 L2899.45,1611.38 L2914.28,1618.53 L2928.33,1619.69 L2942.05,1620.37 L2946.5,1617.59 L2970.02,1600.23 L2984.5,1596.26 L2993.46,1591.14 L2999.64,1586.77 L3000.64,1586.03 L3001.54,1585.37 L3006.36,1581.82 L3006.08,1581.31"/>
<path vector-effect="none" fill-rule="evenodd" d="M2762.31,1612.04 L2774.69,1606.75 L2796.54,1603.88 L2821.18,1601.15 L2846.63,1597.27 L2853.2,1596.26 L2854.93,1596 L2901.65,1587.17 L2910.56,1585.59 L2935.41,1582.17 L2979.52,1576.71 L3000.06,1577.65 L3004.94,1582.31 L3005.78,1581.89"/>
<path vector-effect="none" fill-rule="evenodd" d="M2712.45,1628.39 L2713.75,1628.14 L2725.75,1627.66 L2762.26,1612.07"/>
<path vector-effect="none" fill-rule="evenodd" d="M2762.49,1612.22 L2762.46,1612.56 L2762.57,1612.89 L2762.9,1614.28 L2762.34,1614.61 L2762.3,1614.68 L2763.16,1615.86 L2763.28,1615.98 L2764.17,1616.67 L2764.53,1618.52 L2764.45,1619.61 L2764.29,1620.76 L2764.35,1620.82 L2764.69,1620.84 L2765.71,1623.37 L2765.14,1623.66 L2765.34,1624.43 L2765.68,1626.18 L2766.15,1626.27 L2766.89,1626.55 L2766.94,1630.13"/>
<path vector-effect="none" fill-rule="evenodd" d="M1997.6,597.816 L2005.21,567.863 L2008.76,542.091 L2027.02,528.52 L2022.84,509.686 L1998.52,496.846 L1982.85,477.484 L1973.32,458.59 L1958.13,450.539 L1955.44,442.561 L1929.49,372.545 L1909.74,352.319"/>
<path vector-effect="none" fill-rule="evenodd" d="M2038.52,1685.08 L2038.42,1685.15 L2037.41,1685.84 L2036.99,1686.13 L2036.67,1686.35 L2035.76,1687 L2035.15,1687.4 L2034.68,1687.43 L2034.22,1688.05 L2033.36,1688.64 L2032.43,1688.54 L2031.82,1688.29 L2031.23,1688.05 L2030.02,1687.56 L2029.63,1687.4 L2029.13,1687.2 L2028.02,1686.74 L2027.2,1686.41 L2025.76,1685.82 L2025,1685.53 L2024.98,1685.52 L2024.46,1685.3 L2024.45,1685.29 L2023.95,1685.1 L2022.98,1684.71 L2022.33,1684.44 L2021.87,1684.55 L2020.62,1684.83 L2020.2,1684.93 L2019,1685.2 L2018.42,1685.35 L2017.48,1685.58 L2017,1685.66 L2015.91,1685.91 L2015.42,1686.01 L2014.56,1686.66 L2014.04,1687.05 L2013.3,1687.57 L2012.67,1688.04 L2012.07,1688.48 L2011.38,1688.97 L2010.66,1689.51 L2010.09,1689.92 L2009.39,1690.45 L2008.37,1690.93 L2007.71,1691.25 L2007.11,1691.52 L2006.7,1691.71 L2005.76,1692.16 L2005.01,1692.51 L2004.31,1692.84 L2003.51,1693.21 L2002.39,1693.33 L2001.72,1693.4 L2000.98,1693.48 L2000.58,1693.52 L2000.18,1693.58 L1999.06,1693.69 L1998.18,1694.29 L1997.96,1694.43 L1996.87,1695.2 L1996.65,1695.35 L1995.56,1696.1 L1995.22,1696.35 L1994.78,1696.63 L1994.12,1697.11 L1993.72,1697.4 L1992.66,1698.14 L1992.1,1698.34 L1991.36,1698.58 L1990.7,1698.81 L1990.04,1699.01 L1988.85,1699.45 L1988.28,1699.66 L1987.67,1699.86 L1986.48,1700.28 L1985.96,1700.44 L1984.81,1700.86 L1984.22,1701.05 L1983.81,1701.19 L1983.04,1701.45 L1982.24,1701.55 L1981.55,1701.64 L1980.71,1701.75 L1980.06,1701.82 L1978.94,1701.96 L1978.53,1702 L1977.2,1702.17 L1976.14,1702.3 L1975.43,1702.38 L1974.78,1702.47 L1973.65,1702.61 L1972.95,1702.7 L1972.24,1702.78 L1971.46,1702.88 L1970.74,1702.97 L1970.19,1703.03 L1969.37,1703.13 L1968.45,1703.25 L1967.5,1703.36 L1966.73,1703.45 L1966.46,1703.54 L1965.23,1703.91 L1964.53,1704.11 L1963.49,1704.44 L1962.87,1704.64 L1962.1,1704.87 L1961.37,1705.08 L1960.49,1705.37 L1959.66,1705.63 L1959,1705.83 L1958.38,1706.01 L1957.79,1706.19 L1956.89,1706.19 L1956.09,1706.17 L1955.42,1706.19 L1954.7,1706.19 L1953.82,1706.19 L1953.22,1706.18 L1952.55,1706.19 L1951.82,1706.19 L1951.03,1706.19 L1949.82,1706.19 L1949.42,1706.19 L1948.16,1706.19 L1947.68,1706.19 L1947.09,1706.18 L1946.15,1706.18 L1945.4,1706.18 L1944.41,1706.18 L1943.85,1706.01 L1942.77,1705.67 L1942.09,1705.46 L1941.44,1705.25 L1940.57,1704.98 L1939.87,1704.76 L1939.84,1704.76 L1938.8,1704.43 L1938.29,1704.26 L1936.63,1703.74 L1935.59,1703.41 L1935.33,1703.33 L1934.08,1702.93 L1933.65,1702.8 L1932.5,1702.45 L1931.95,1702.26 L1930.75,1701.9 L1930.41,1701.8 L1929.2,1701.4 L1927.88,1700.99 L1927.27,1701.18 L1926.86,1701.31 L1926,1701.6 L1925.08,1701.88 L1924.42,1702.09 L1923.8,1702.28 L1922.85,1702.24 L1922.06,1702.2 L1921.28,1702.18 L1920.49,1702.13 L1919.42,1702.09 L1918.5,1702.05 L1918.14,1702.03 L1916.88,1701.99 L1915.99,1701.95 L1915.25,1701.92 L1914.56,1701.89 L1913.78,1701.85 L1913.15,1701.82 L1912.04,1701.78 L1910.84,1701.73 L1910.19,1701.7 L1909.53,1701.68 L1908.88,1701.64 L1907.99,1701.6 L1907.05,1701.57 L1906.24,1701.52 L1905.51,1701.49 L1904.79,1701.48 L1903.98,1701.43 L1903.08,1701.39 L1902.12,1701.35 L1901.5,1701.32 L1900.79,1701.31 L1899.73,1701.26 L1898.95,1701.22 L1898.28,1701.19 L1897.46,1701.26 L1896.67,1701.35 L1895.89,1701.39 L1895.12,1701.48 L1894.3,1701.55 L1893.38,1701.65 L1892.59,1701.59 L1891.63,1701.52 L1890.94,1701.46 L1890.18,1701.4 L1889.65,1701.37 L1888.63,1701.28 L1887.82,1701.22 L1886.76,1701.14 L1886.25,1701.1 L1884.97,1701.01 L1884.08,1700.94 L1883.82,1700.92 L1882.66,1700.82 L1881.93,1700.91 L1880.66,1701.04 L1880.3,1701.09 L1879.22,1701.2 L1878.51,1701.28 L1877.84,1701.35 L1876.71,1701.47 L1876.36,1701.51 L1875.73,1701.58 L1874.95,1701.66 L1874.16,1701.75 L1873.31,1701.84 L1872.73,1701.89 L1872.32,1701.93 L1871.07,1702.07 L1870.66,1702.13 L1870.24,1702.04 L1868.93,1701.79 L1867.54,1701.53 L1867.02,1701.44 L1866.56,1701.36 L1865.79,1701.22 L1864.91,1701.05 L1864.56,1700.99 L1864.01,1700.89 L1863.08,1700.72 L1862.42,1700.59 L1861.78,1700.47 L1861.22,1700.37 L1860.07,1700.15 L1859.43,1700.02 L1858.51,1699.86 L1858.05,1699.77 L1857.31,1699.64 L1856.44,1699.48 L1855.78,1699.35 L1855.04,1699.21 L1854.18,1699.05 L1853.02,1698.84 L1852.41,1698.72 L1851.53,1698.56 L1851.19,1698.51 L1850.38,1698.34 L1849.43,1698.17 L1848.51,1698 L1848.1,1697.92 L1847.14,1697.74 L1846.31,1697.59 L1845.4,1697.42 L1844.77,1697.82 L1844.08,1698.25 L1843.38,1698.7 L1842.86,1699.03 L1842.31,1699.36 L1841.61,1699.81 L1841.11,1700.13 L1840.03,1700.82 L1839.58,1701.09 L1839.07,1701.41 L1838.21,1701.95 L1837.1,1702.65 L1836.82,1702.82 L1835.68,1703.53 L1834.99,1703.97 L1834.48,1704.29 L1833.47,1704.27 L1832.63,1704.26 L1832.03,1704.24 L1831.28,1704.22 L1830.56,1704.21 L1829.89,1704.2 L1829,1704.18 L1828.16,1704.17 L1827.31,1704.14 L1826.61,1704.13 L1825.94,1704.12 L1825.19,1704.1 L1824.47,1704.09 L1823.8,1704.07 L1823.15,1704.07 L1822.62,1704.05 L1821.9,1704.03 L1820.99,1703.85 L1820.15,1703.69 L1819.49,1703.56 L1818.98,1703.45 L1817.9,1703.23 L1816.76,1703 L1816.26,1702.91 L1815.98,1702.86 L1815.42,1702.74 L1814.62,1702.59 L1813.59,1702.38 L1812.96,1702.25 L1812.19,1702.1 L1811.49,1701.96 L1810.68,1701.79 L1809.95,1701.65 L1809.23,1701.51 L1808.46,1701.35 L1807.71,1701.19 L1806.96,1701.06 L1806.2,1700.9 L1805.35,1700.74 L1804.74,1700.62 L1804.17,1700.5 L1803.13,1700.3 L1802.38,1700.14 L1801.8,1700.02 L1800.79,1699.83 L1799.94,1699.65 L1799.49,1699.56 L1799.02,1699.47 L1798.18,1699.3 L1797.33,1699.13 L1796.64,1699 L1795.93,1698.86 L1795.25,1699.05 L1794.67,1699.21 L1793.89,1699.45 L1793.06,1699.68 L1791.78,1700.06 L1791.3,1700.19 L1790.46,1700.43 L1789.71,1700.64 L1788.82,1700.9 L1788.18,1701.09 L1786.95,1701.45 L1786.1,1701.69 L1785.34,1701.91 L1784.38,1702.19 L1783.55,1702.43 L1782.72,1702.68 L1781.86,1702.94 L1780.78,1703.24 L1780.19,1703.42 L1779.52,1703.62 L1778.86,1703.81 L1777.69,1704.14 L1777.05,1704.33 L1775.49,1703.76 L1775.17,1703.64 L1774.25,1703.31 L1773.25,1702.54 L1772.88,1702.26 L1772.35,1701.84 L1771.42,1701.11 L1771.01,1700.79 L1770.07,1700.06 L1769.6,1699.7 L1769.08,1699.32 L1768.16,1699.15 L1767.33,1699.03 L1766.75,1698.96 L1765.86,1698.8 L1765.24,1698.71 L1764.86,1698.7 L1764,1698.69 L1763.28,1698.67 L1762.87,1698.16 L1762.39,1697.54 L1761.63,1696.57 L1761.35,1696.24 L1760.76,1695.49 L1760.65,1695.03 L1759.79,1694.2 L1759.36,1693.8 L1758.75,1693.19 L1758.33,1692.82 L1757.82,1692.35 L1757.25,1691.78 L1756.53,1691.11 L1755.99,1690.61 L1755.28,1689.92 L1754.89,1689.55 L1754.07,1688.78 L1753.55,1688.29 L1753.49,1687.35 L1753.44,1686.71 L1753.35,1685.58 L1753.29,1684.69 L1753.22,1683.82 L1753.16,1683.02 L1753.11,1682.38 L1753.05,1681.63 L1752.96,1680.44 L1752.92,1679.88 L1752.86,1679.05 L1752.79,1678.05 L1752.98,1677.46 L1753.22,1676.78 L1753.5,1676 L1753.83,1675.05 L1754.09,1674.31 L1754.39,1673.41 L1754.77,1672.3 L1754.97,1671.73 L1755.21,1671.05 L1755.46,1670.33 L1755.77,1669.47 L1756.03,1668.68 L1756.36,1667.71 L1756.1,1666.56 L1755.95,1665.91 L1755.79,1665.28 L1755.57,1664.32 L1755.39,1663.59 L1755.15,1662.58 L1754.94,1661.75 L1754.73,1660.84 L1754.61,1660.32 L1754.35,1659.24 L1754.21,1658.66 L1753.46,1658.04 L1752.84,1658.07 L1752.08,1658.12 L1751.08,1658.19 L1750.28,1658.23 L1749.55,1658.27 L1748.43,1658.34 L1747.8,1658.37 L1747.25,1658.41 L1746.47,1658.46 L1745.25,1658.53 L1744.41,1658.57 L1743.75,1658.62 L1742.95,1658.68 L1741.25,1658.79 L1740.68,1658.82 L1739.81,1658.87 L1739.27,1658.62 L1738.31,1658.19 L1737.6,1657.85 L1736.63,1657.4 L1735.9,1657.07 L1735.07,1656.7 L1734.47,1656.43 L1733.39,1655.93 L1732.89,1655.7 L1731.81,1655.21 L1729.8,1654.3 L1729.16,1654 L1728.38,1653.65 L1727.82,1653.4 L1727.04,1653.04 L1726.13,1652.62 L1725.69,1652.15 L1725.05,1651.5 L1724.79,1651.2 L1724.22,1650.62 L1723.75,1650.34 L1722.69,1649.72 L1721.96,1649.3 L1721.15,1648.84 L1720.8,1648.63 L1719.83,1648.06 L1719.46,1647.3 L1718.92,1646.19 L1718.68,1645.7 L1718.36,1645.05 L1717.95,1644.2 L1717.6,1643.48 L1717.3,1642.87 L1716.91,1642.04 L1715.82,1641.46 L1715.26,1641.16 L1714.64,1640.83 L1713.7,1640.33 L1713.33,1640.13 L1712.51,1639.7 L1712.06,1639.46 L1711.13,1638.96 L1710.43,1638.59 L1709.88,1638.3 L1709.2,1637.94 L1708.23,1637.99 L1707.34,1638.06 L1706.42,1638.13 L1705.53,1638.17 L1704.9,1638.21 L1704.04,1638.26 L1702.92,1638.7 L1702.08,1639.01 L1701.5,1639.24 L1700.4,1639.68 L1699.41,1640.05 L1698.51,1639.36 L1697.94,1638.92 L1697.37,1638.48 L1696.64,1637.92 L1695.69,1637.18 L1695.22,1636.84 L1694.09,1636.7 L1693.01,1636.6 L1692.48,1636.84 L1691.76,1637.19 L1690.71,1637.72 L1690.34,1637.89 L1689.32,1638.38 L1688.49,1638.32 L1687.44,1638.23 L1686.67,1638.16 L1685.6,1638.05 L1685.14,1638.01 L1684.07,1637.91 L1683.36,1637.85 L1682.3,1637.75 L1681.75,1637.7 L1680.81,1637.61 L1680,1637.51 L1679.47,1637.47 L1678.47,1637.37 L1677.61,1637.29 L1677.01,1637.24 L1676.82,1636.94 L1676.52,1636.95 L1675.2,1634.37 L1674.97,1634 L1674.39,1633.07 L1674.03,1632.53 L1673.36,1632.03 L1672.35,1631.33 L1672.32,1631 L1672.26,1630.45 L1672.19,1629.77 L1672.04,1628.61 L1671.99,1628.13 L1671.94,1627.7 L1671.8,1626.51 L1671.72,1625.87"/>
<path vector-effect="none" fill-rule="evenodd" d="M1793.05,2291.12 L1803.27,2283.4 L1812.43,2282.16 L1825.69,2276.35 L1828.64,2273.48"/>
<path vector-effect="none" fill-rule="evenodd" d="M2580.04,484.177 L2556.8,480.536 L2516.48,537.543 L2492.75,531.314 L2402.85,556.625 L2381.89,576.196"/>
<path vector-effect="none" fill-rule="evenodd" d="M2381.83,576.248 L2378.8,579.081 L2354.12,577.837 L2320.77,565.287 L2300.17,572.358 L2258.02,562.981 L2224.48,595.676 L2216.84,610.322 L2199.45,615.427 L2195.77,613.726 L2195.49,612.093 L2194.79,611.157 L2193.84,609.062 L2185.83,605.327 L2177.15,605.779 L2146.95,612.439 L2119.06,604.571 L2084.19,611.91 L2071.1,618.791 L2069.41,627.14 L2058.77,626.82 L2041.49,600.453 L2014.23,594.472 L1997.6,597.816"/>
<path vector-effect="none" fill-rule="evenodd" d="M2381.75,576.019 L2402.66,556.294 L2492.75,530.932 L2516.33,537.122 L2556.5,480.322 L2541.29,468.751 L2515.71,372.889 L2527.54,337.13 L2525.33,328.661 L2523.12,320.191 L2516.52,307.763 L2510.49,259.665 L2499.06,231.257 L2497.77,225.905 L2491.15,198.545 L2476.07,181.148 L2472.96,149.575 L2470.52,132.886 L2475.78,115.444 L2474.35,87.9345 L2471.87,79.6551"/>
<path vector-effect="none" fill-rule="evenodd" d="M3716.64,595.112 L3699.88,603.038 L3694.97,603.878 L3690.01,606.226 L3678.6,613.104 L3616.37,642.529 L3542.73,711.566 L3514.8,785.437 L3453.67,855.91 L3421.41,877.343 L3413.11,876.204 L3397.67,884.069 L3371.23,891.494 L3340.56,898.323 L3338.56,898.45 L3324.28,903.109 L3312.83,899.712 L3310.1,899.659 L3304.1,899.825 L3301.19,900.643 L3287.92,901.369 L3262.54,898.741 L3254.53,899.437 L3246.68,988.099 L3245.69,988.794"/>
<path vector-effect="none" fill-rule="evenodd" d="M2713.51,1648.87 L2713.21,1648.74 L2713.33,1648.25 L2713.28,1648.24"/>
<path vector-effect="none" fill-rule="evenodd" d="M1660.43,2306.23 L1683.66,2277.66"/>
<path vector-effect="none" fill-rule="evenodd" d="M2818.75,1601.18 L2819.95,1603.06 L2821.9,1604.42 L2823.37,1605.33 L2825.03,1605.33 L2825.04,1605.58 L2826.44,1606.54 L2831.86,1609.85 L2832.66,1610.17 L2833.18,1610.05"/>
<path vector-effect="none" fill-rule="evenodd" d="M1909.74,352.319 L1870.55,414.751"/>
<path vector-effect="none" fill-rule="evenodd" d="M1758.59,2082.56 L1758.12,2082.35 L1744.76,2078.63 L1737.99,2078.72 L1728.36,2079.21 L1717.93,2079.22 L1715.51,2082.31 L1711.33,2081.93 L1708.88,2079.23 L1697.23,2079.23 L1670.92,2075.06 L1664.86,2075.67 L1663.09,2077.51 L1644.36,2078.56 L1629.4,2070.55 L1619.22,2068.43 L1616.07,2069.49 L1606.19,2072.9 L1594.64,2071.42 L1577.91,2067.15 L1572.86,2066.12 L1561.49,2069.97 L1541.52,2068.86 L1537.89,2056.51 L1537.79,2053.75 L1537.35,2053.44 L1528.34,2040.92 L1519.46,2024.53 L1538.81,1988.63 L1510.81,1966.34 L1509.18,1962.81 L1510.17,1956.09 L1509.05,1951.56 L1510.63,1943.9 L1509.76,1929.49 L1504.98,1907.58 L1509.42,1902.7 L1501.72,1871.69 L1492,1859.46 L1491.06,1857.49 L1488.42,1854.9 L1488.43,1853.21 L1469.53,1810.57 L1465.17,1792.3 L1466.7,1789.03 L1476.05,1778.81 L1483.45,1765.33 L1485.19,1757.5 L1498.67,1737.05 L1516.51,1718.34 L1521.73,1704.86 L1526.51,1679.19 L1521.89,1672.3 L1521.81,1672.2 L1521.6,1672.18"/>
<path vector-effect="none" fill-rule="evenodd" d="M2563.67,715.03 L2563.65,715.067 L2536.91,773.619 L2518.73,840.626 L2494.09,868.411 L2485.05,872.868 L2469.13,893.899 L2452.41,906.684 L2443.79,924.399 L2449.88,971.755 L2452.44,1036.63 L2452.44,1036.67"/>
<path vector-effect="none" fill-rule="evenodd" d="M2684.65,1388.24 L2690.77,1430.58 L2684.72,1447.27 L2680.97,1452.91 L2680.7,1453.32 L2687.31,1480.65 L2685.3,1537.34 L2684.15,1550 L2680.7,1557.48 L2679.76,1581.09 L2685.11,1589.55 L2687.31,1595.34 L2689.61,1600.59 L2690.76,1600.59 L2692.7,1595.27 L2695.86,1596.47"/>
<path vector-effect="none" fill-rule="evenodd" d="M2695.86,1596.47 L2691.71,1601.93 L2690.35,1602.68 L2688.74,1602.57 L2684.76,1595.81 L2681.89,1590.94 L2676.14,1582.6 L2676.71,1557.57 L2680.16,1543.47 L2684.3,1484.75 L2677.11,1452.97 L2682.83,1442.05"/>
<path vector-effect="none" fill-rule="evenodd" d="M1521.53,1671.93 L1520.61,1671.85 L1519.54,1672.76 L1519.29,1678.67 L1519.43,1687.23 L1516.14,1690.41 L1499.3,1699.67 L1493.61,1702.23 L1490.18,1706.74 L1489.41,1712.46 L1491.02,1714.75 L1493.62,1719.44 L1494.36,1721.56 L1493.24,1737.31 L1483.14,1753.11 L1478.24,1765.86 L1467.09,1781.23 L1455.48,1787.13 L1432.05,1787.48 L1428.92,1790.93 L1416.94,1798.67 L1407.47,1802.05 L1403.99,1805.83 L1400.81,1821.38 L1390.62,1831.19 L1364.47,1827.81 L1340.54,1803.27 L1339.59,1801.87 L1336.49,1800.21 L1334.89,1791.73 L1331.85,1788.93"/>
<path vector-effect="none" fill-rule="evenodd" d="M3245.71,988.69 L3245.83,988.557 L3245.66,988.359 L3245.72,987.448 L3228.27,956.1 L3192.04,948.888 L3166.04,923.318 L3160.71,924.648 L3117.66,910.413 L3104.89,907.44 L3099.93,903.51 L3085.3,895.554 L3074.26,886.745 L3065.71,877.706 L3065.41,877.646 L3058.45,856.438 L3054.69,844.385 L3044.89,835.828 L3043.19,832.96 L3035.16,827.317 L3022.15,823.825 L3011.2,816.098 L2991.28,813.723 L2948.11,801.567 L2914.72,779.239 L2891.14,757.132 L2880.23,752.216 L2876.42,751.375 L2868.13,728.318 L2863,718.107"/>
<path vector-effect="none" fill-rule="evenodd" d="M3245.58,988.572 L3245.6,988.554 L3245.48,988.42 L3245.54,987.488 L3228.16,956.255 L3191.96,949.048 L3165.99,923.511 L3160.71,924.829 L3117.61,910.581 L3104.82,907.601 L3099.83,903.655 L3085.21,895.699 L3074.14,886.874 L3065.62,877.866 L3065.28,877.797 L3058.29,856.491 L3054.54,844.484 L3044.76,835.941 L3043.06,833.081 L3035.09,827.477 L3022.08,823.985 L3011.14,816.266 L2991.24,813.894 L2948.04,801.727 L2914.61,779.375 L2891.04,757.279 L2880.17,752.382 L2876.29,751.524 L2867.97,728.387 L2862.84,718.185"/>
<path vector-effect="none" fill-rule="evenodd" d="M3494.99,1498.85 L3673.86,1525.83 L3858.8,1538.11"/>
<path vector-effect="none" fill-rule="evenodd" d="M3496.54,1497.17 L3673.86,1524 L3858.8,1535.9"/>
<path vector-effect="none" fill-rule="evenodd" d="M3459.05,1488.38 L3458.59,1487.9 L3454.95,1486.12 L3440.09,1478.87 L3439.7,1478.24 L3438.1,1458.93 L3433.19,1444.21 L3430.93,1439.85 L3430.82,1433.57 L3438.86,1420.53 L3443.41,1408.62 L3458.04,1369.32 L3461.69,1356.47 L3478.42,1332.92 L3486.46,1295.14 L3486.4,1290.13 L3486.05,1289.18 L3465.74,1282.05 L3446.14,1211.38 L3445.02,1192.93 L3425.92,1171.42 L3415.39,1149.27 L3412.23,1142.61 L3394.86,1117.32 L3393.97,1112.95 L3382.15,1100.9 L3372.81,1082.9 L3368.89,1081.55 L3355.99,1067.58 L3354.26,1060.16 L3348.22,1055.8 L3345.73,1051.42 L3325.31,1034.05 L3313.49,1027.35 L3303.81,1009.47 L3293.49,998.485 L3284.15,993.294 L3279.98,992.196 L3278.99,992.05 L3273.36,994.36 L3271.25,995.293 L3246.86,989.896 L3245.67,989.002"/>
<path vector-effect="none" fill-rule="evenodd" d="M3458.92,1488.5 L3458.48,1488.04 L3450.66,1484.22 L3439.97,1479 L3439.53,1478.3 L3437.93,1458.97 L3433.03,1444.28 L3430.75,1439.9 L3430.64,1433.53 L3438.71,1420.45 L3443.25,1408.55 L3457.88,1369.26 L3461.53,1356.4 L3478.25,1332.85 L3486.29,1295.12 L3486.23,1290.16 L3485.92,1289.32 L3465.59,1282.18 L3445.97,1211.41 L3444.85,1193 L3425.78,1171.52 L3415.23,1149.34 L3412.08,1142.7 L3394.7,1117.38 L3393.81,1113.04 L3382.01,1101 L3372.69,1083.04 L3368.79,1081.7 L3355.83,1067.66 L3354.11,1060.26 L3348.09,1055.92 L3345.59,1051.53 L3325.21,1034.19 L3313.36,1027.47 L3303.67,1009.57 L3293.39,998.624 L3284.09,993.457 L3279.94,992.366 L3279.02,992.23 L3273.43,994.52 L3271.27,995.475 L3246.79,990.058 L3245.56,989.141"/>
<path vector-effect="none" fill-rule="evenodd" d="M2683.84,284.692 L2686.59,286.262 L2695.32,294.802 L2699.56,298.004 L2696.43,304.738 L2699.37,310.793 L2707.7,314.469 L2708.08,317.193 L2713.3,318.058 L2719.73,318.959 L2718.62,323.435 L2726.1,321.356 L2735.6,334.311 L2743,355.527 L2747.55,369.161"/>
<path vector-effect="none" fill-rule="evenodd" d="M2694.49,1633.9 L2694.67,1634.1 L2694.87,1633.96"/>
<path vector-effect="none" fill-rule="evenodd" d="M3005.7,1581 L3005.9,1580.82 L3005.46,1579.36 L3007.2,1578.85"/>
<path vector-effect="none" fill-rule="evenodd" d="M3005.77,1581.09 L3006,1580.88 L3005.56,1579.41 L3007.26,1578.91"/>
<path vector-effect="none" fill-rule="evenodd" d="M3005.84,1581.22 L3005.98,1581.12 L3006.11,1580.93 L3005.67,1579.47 L3007.29,1579"/>
<path vector-effect="none" fill-rule="evenodd" d="M1937.3,625.663 L1997.6,597.816"/>
<path vector-effect="none" fill-rule="evenodd" d="M3716.67,595.088 L3685.06,604.324 L3638.42,580.05 L3615.8,588.044 L3562.06,564.215 L3551.26,537.846 L3549.66,502.088 L3527.29,430.83 L3514.41,400.686 L3463.72,378.094 L3443.34,351.862"/>
<path vector-effect="none" fill-rule="evenodd" d="M3443.28,350.572 L3457.8,312.595 L3464.94,285.201 L3462.86,262.181 L3469.63,164.883 L3491.78,111.477 L3463.12,95.7654 L3419.59,93.8087 L3385.06,87.4782 L3340.45,94.3842 L3305.64,84.3129 L3252.98,78.1743 L3230.19,88.272 L3210.44,110.084 L3169.6,125.197 L3144.54,153.914 L3091.22,160.448 L3025.61,215.811 L2985.34,222.731 L2938.88,221.911 L2912.48,237.577 L2859.97,228.622"/>
<path vector-effect="none" fill-rule="evenodd" d="M2339.38,161.831 L2296.73,178.881 L2278.27,157.251 L2266.76,148.043 L2251.57,148.714 L2243.74,167.84 L2220.03,171.293 L2208.47,223.111 L2175.34,229.279 L2121.8,216.579 L2108.24,206.389 L2101.96,196.05 L2095.59,190.435 L2068.07,191.635 L2053.44,185.075 L2032.44,196.123 L2024.62,213.545 L1976.28,220.115 L1937.47,240.986 L1919.34,264.581 L1904.51,295.014 L1917.61,330.191 L1909.74,352.319"/>
<path vector-effect="none" fill-rule="evenodd" d="M2859.44,228.463 L2847.3,208.423 L2805.28,196.049 L2767.3,178.209 L2745.72,176.551 L2699.6,139.19 L2648.39,160.476 L2632,173.938 L2627.77,191.646 L2604.64,210.292 L2552.38,219.957 L2487.59,222.344 L2464.67,186.914 L2441.5,187.928 L2425.92,169.03 L2408.35,163.732 L2380.62,176.717 L2354.95,175.98 L2339.38,161.831"/>
<path vector-effect="none" fill-rule="evenodd" d="M3486.75,1288.5 L3487.03,1285.42 L3468.77,1279.63 L3467.2,1269.39 L3472.8,1259.38 L3472.92,1251.68 L3469.15,1248.76 L3466.43,1244.39 L3468.38,1238.42 L3479.93,1236.13 L3489.63,1224.2 L3494.28,1219.25 L3499.88,1210.82 L3513.33,1200.83 L3529.16,1178.3 L3538.57,1154.57 L3556.23,1122.83 L3578.97,1099.4 L3584.66,1095.92 L3602.12,1081.24 L3611.23,1077.09"/>
<path vector-effect="none" fill-rule="evenodd" d="M2747.68,369.153 L2775.88,372.03 L2839.18,317.933 L2877.17,290.309 L2882.92,259.808 L2859.51,229.122"/>
<path vector-effect="none" fill-rule="evenodd" d="M2766.94,1630.13 L2766.82,1630.64 L2762.76,1636.71 L2763.32,1638.85 L2764.07,1647.77 L2761.63,1650.97 L2759.34,1651.23 L2757.8,1648.5 L2753.7,1646.72 L2752.91,1648.5 L2752.91,1652.75 L2753.98,1654.45 L2754.69,1656.06 L2753.74,1657.58 L2753.53,1657.62 L2751.11,1655.73 L2748.88,1655.12 L2747.81,1654.56 L2745.69,1655.61 L2744.32,1655.24 L2739.61,1652.51 L2739.07,1649.28 L2740.45,1648.81 L2742.11,1648.21"/>
<path vector-effect="none" fill-rule="evenodd" d="M2280.7,1953.12 L2280.12,1951.63 L2270.94,1952.4 L2203.49,1959.99 L2193.13,1971.96 L2128.22,1984.39 L2115.1,1974.04 L2072.97,1966.21 L2049.03,1970.35 L2005.06,1988.54 L1964.55,2013.17 L1950.96,2019.38 L1936.46,2026.75 L1916.89,2026.98 L1897.56,2031.82 L1886.74,2023.76 L1881.21,2024.45 L1874.08,2029.74 L1869.93,2035.21 L1836.27,2035.5 L1813.25,2043.84 L1781.88,2070.03 L1759.97,2079.8 L1758.71,2082.63"/>
<path vector-effect="none" fill-rule="evenodd" d="M2622.93,1680.06 L2606.72,1683.99 L2593.49,1683.13 L2575.65,1678.52 L2562.12,1675.36 L2545.87,1674.78 L2534.21,1676.94 L2522.1,1682.12 L2503.45,1680.74 L2493.38,1683.79 L2480.66,1687.65 L2462.71,1694.09 L2437.38,1706.75 L2411.6,1716.65 L2389.04,1719.18 L2372.24,1716.65 L2353.13,1726.55 L2343.46,1726.78 L2340.58,1724.64 L2333.56,1719.41 L2323.89,1709.98 L2290.28,1714.58 L2269.8,1703.07 L2240.33,1708.36 L2214.78,1715.04 L2194.52,1715.73 L2168.51,1712.05 L2144.57,1703.53 L2118.33,1695.01 L2096.92,1695.7 L2076.89,1695.93 L2046.5,1695.01 L2023.02,1696.16 L2001.61,1704.68 L1974.91,1712.28 L1952.12,1714.35 L1930.94,1710.21 L1906.54,1709.28 L1873.39,1709.51 L1850.14,1706.75 L1836.1,1711.36 L1817.91,1712.28 L1792.82,1710.9 L1771.18,1709.98 L1757.14,1703.07 L1749.54,1691.79 L1743.79,1674.75 L1729.52,1663.01 L1707.88,1650.58 L1683.48,1645.52 L1666.44,1636.77 L1646.18,1629.64 L1619.25,1629.87 L1586.79,1633.78 L1566.76,1654.04 L1548.35,1668.54 L1535.89,1671.81 L1521.89,1672.3 L1521.53,1672.32"/>
<path vector-effect="none" fill-rule="evenodd" d="M2109.26,1084.66 L2115.14,1089.54 L2117.5,1095.8 L2129.19,1105.2 L2130.34,1111.93 L2130.56,1112.2 L2130.81,1112.34 L2131.14,1113.93 L2130.82,1117.49 L2132.05,1118.98 L2132.6,1121.54 L2144.12,1139.35 L2146.18,1145.76 L2148.02,1146.57 L2150.11,1148.83 L2153.57,1153.07 L2160.56,1159.67 L2161.82,1160.55 L2163.21,1162.04 L2163.71,1162.17 L2165.12,1162.89 L2165.56,1162.99 L2166.96,1163.7 L2167.47,1163.83 L2169.2,1164.52 L2171.1,1165.96 L2171.65,1166.84 L2174.09,1168.55 L2174,1171.16 L2174.8,1174.61 L2176.58,1177.15 L2179.78,1178.2 L2183.32,1181.62 L2193.07,1187.64 L2194.95,1189.16 L2198.38,1191.95 L2200.53,1193.69 L2207.98,1199.74 L2212.1,1204 L2216.05,1208.1 L2216.68,1209.02 L2218.4,1211.56 L2219.69,1213.45 L2220.15,1214.13 L2220.56,1214.75 L2221.47,1216.09 L2221.69,1217.4 L2221.91,1218.69 L2222.62,1222.92 L2223.8,1229.97 L2224.15,1230.66 L2225.26,1232.82 L2226.99,1236.2 L2228.96,1240.06 L2231.25,1244.53 L2231.92,1245.84 L2234.26,1250.42 L2234.86,1251.02 L2236.26,1252.42 L2245.55,1261.71 L2258.02,1274.16 L2262.12,1277.63 L2268.49,1286.6 L2285.88,1309.84 L2290.55,1320.02 L2293.22,1321.63 L2295.29,1323.31 L2295.87,1324 L2297.31,1324.98 L2298.58,1325.37 L2300.54,1326.41 L2302.78,1326.62 L2303.82,1326.38 L2306.29,1328.06 L2307.66,1329.96 L2308.43,1333.07 L2315.17,1347.06 L2311.92,1349.11"/>
<path vector-effect="none" fill-rule="evenodd" d="M1671.72,1625.87 L1671.66,1625.23 L1671.55,1624.6 L1671.49,1624.04 L1671.55,1623.49 L1671.6,1623 L1671.64,1622.39 L1671.71,1621.11 L1671.29,1620.58 L1671.01,1620.24 L1670.73,1619.87 L1669.49,1619.89 L1669.04,1619.88 L1668.04,1619.92 L1663.78,1619.98 L1663,1620.02 L1661.91,1619.91 L1661.09,1619.83 L1659.33,1619.68 L1658.71,1619.61 L1658.29,1619.48 L1658.23,1619.58 L1657.39,1620.01 L1656.77,1620.34 L1656.04,1620.71 L1653.69,1622.17 L1653.34,1622.4 L1652.32,1623.1 L1651.74,1623.21 L1651.16,1623.32 L1650.53,1623.46 L1649.93,1623.43 L1649.45,1622.76 L1648.52,1621.46 L1648.1,1621.21 L1647.75,1620.99 L1647.22,1620.67 L1646.71,1620.77 L1646.22,1620.83 L1645.54,1620.93 L1644.8,1621.05 L1644.33,1620.53 L1644.07,1620.23 L1641.94,1618.29 L1641.51,1617.99 L1640.69,1618.31 L1640.16,1618.53 L1638.99,1618.98 L1638.25,1619.28 L1637.23,1619.68 L1636.69,1619.9 L1636.13,1620.24 L1635.28,1620.75 L1634.66,1621.13 L1633.79,1621.62 L1633.19,1621.63 L1632.02,1621.63 L1631.31,1621.62 L1630.79,1621.62 L1630.11,1621.62 L1629.05,1621.61 L1628.37,1621.62 L1627.16,1621.62 L1625.92,1621.62 L1625.5,1621.61 L1624.65,1621.6 L1624.08,1621.61 L1623.58,1621.42 L1622.49,1621.04 L1620.86,1620.47 L1619.84,1620.1 L1619.35,1620.31 L1618.88,1620.51 L1618.03,1620.91 L1617.36,1621.2 L1616.45,1621.61 L1615.91,1621.87 L1614.96,1622.29 L1612.6,1622.88 L1611.48,1623.16 L1610.61,1623.38 L1609.25,1623.72 L1608.86,1623.81 L1608.22,1623.95 L1607.07,1624.25 L1606.71,1624.33 L1604.27,1625.01 L1603.7,1625.18 L1603.12,1625.38 L1600.67,1626.17 L1599,1626.72 L1598.9,1626.82 L1598.23,1626.75 L1597.42,1626.8 L1596.63,1626.85 L1595.73,1626.9 L1595.03,1626.94 L1594.26,1626.98 L1593.43,1627.03 L1592.42,1627.08 L1591.71,1627.12 L1590.77,1627.19 L1589.89,1627.25 L1588.97,1627.3 L1588.13,1627.34 L1587.28,1627.39 L1586.35,1627.44 L1585.34,1627.51 L1584.57,1627.55 L1583.96,1628.09 L1583.17,1628.78 L1582.54,1629.35 L1581.8,1630.02 L1581.42,1630.36 L1581.37,1630.39 L1580.91,1630.82 L1580.41,1631.25 L1579.67,1631.91 L1579.13,1632.4 L1578.57,1632.9 L1578.01,1633.4 L1577.43,1633.91 L1576.93,1634.36 L1576.33,1634.88 L1575.72,1635.45 L1575,1636.08 L1574.41,1636.61 L1573.7,1637.25 L1573.11,1637.76 L1572.46,1638.34 L1571.99,1638.76 L1571.14,1639.51 L1570.61,1639.99 L1570.07,1640.48 L1569.44,1641.03 L1568.81,1641.6 L1568.28,1642.07 L1567.88,1642.41 L1567.11,1643.11 L1566.63,1643.53 L1566.02,1644.07 L1565.26,1644.75 L1564.61,1645.33 L1564.06,1645.8 L1563.58,1646.25 L1563.08,1646.69 L1562.47,1647.24 L1561.9,1647.76 L1561.29,1648.29 L1560.68,1648.83 L1560.09,1649.36 L1559.49,1649.89 L1558.91,1650.41 L1558.28,1650.97 L1557.53,1651.64 L1557.1,1652.03 L1556.6,1652.46 L1556.08,1652.93 L1555.48,1653.47 L1555.24,1653.68 L1555.22,1654.4 L1555.21,1655.06 L1552.61,1656.02 L1552.34,1656.24 L1551.79,1656.75 L1551.27,1657.22 L1549.91,1658.44 L1549.27,1659.01 L1548.42,1659.79 L1548,1660.16 L1547.31,1660.75 L1546.71,1661.28 L1546.23,1661.71 L1545.71,1662.18 L1545.05,1662.77 L1544.46,1663.3 L1543.89,1663.79 L1543.35,1664.28 L1542.56,1665 L1541.97,1665.52 L1541.31,1666.1 L1540.81,1666.57 L1540.23,1667.07 L1539.67,1667.57 L1539.12,1668.05 L1538.38,1668.69 L1537.85,1669.19 L1537.45,1669.55 L1536.86,1670.06 L1536.46,1670.12 L1535.45,1670.28 L1534.8,1670.37 L1533.97,1670.49 L1533.16,1670.64 L1532.51,1670.73 L1531.78,1670.83 L1530.92,1670.95 L1530.18,1671.09 L1529.46,1671.17 L1528.6,1671.3 L1527.64,1671.43 L1526.9,1671.54 L1526.23,1671.66 L1525.57,1671.76 L1525.14,1671.83 L1523.68,1672.02 L1523.09,1672.11 L1522.42,1672.2 L1522.05,1672.16 L1521.64,1672.11"/>
<path vector-effect="none" fill-rule="evenodd" d="M1521.81,1671.71 L1529.59,1670.89 L1536.02,1669.95 L1545.01,1631.53 L1570.52,1628.03 L1595.54,1626.72 L1602.06,1581.62 L1611.92,1566.15 L1607.12,1549.95 L1616.38,1506.21 L1615.46,1505.61 L1615.22,1505.59"/>
<path vector-effect="none" fill-rule="evenodd" d="M3458.98,1488.59 L3468.97,1494.92 L3494.99,1498.85"/>
<path vector-effect="none" fill-rule="evenodd" d="M3458.98,1488.59 L3468.26,1492.89 L3496.54,1497.17"/>
<path vector-effect="none" fill-rule="evenodd" d="M1331.85,1788.93 L1331.79,1788.87 L1208.95,1557.48"/>
<path vector-effect="none" fill-rule="evenodd" d="M1670.65,2333.41 L1667.24,2330.83 L1657.41,2309.95 L1660.43,2306.23"/>
<path vector-effect="none" fill-rule="evenodd" d="M2160.24,2276.43 L2159.88,2277.05 L2159.68,2386.09 L2154.07,2397.63 L2327.75,2440.08"/>
<path vector-effect="none" fill-rule="evenodd" d="M2151.66,2276.48 L2150.75,2277.88 L2154.07,2397.63"/>
<path vector-effect="none" fill-rule="evenodd" d="M2108.7,1083.88 L2110.09,1082.49 L2108.54,1052.67 L2115.1,1034.76 L2139.95,1020.43 L2200.08,1027.66 L2236.26,1015.8 L2243.53,1010.42 L2243.72,1010.29"/>
<path vector-effect="none" fill-rule="evenodd" d="M3470.6,1510.53 L3474.8,1499.46 L3474.99,1499.15 L3474.68,1498.8 L3469.82,1497.99 L3467.29,1496.11 L3464.6,1495.75 L3464.24,1495.41 L3461.07,1494.47 L3462.65,1490.84 L3458.85,1488.97"/>
<path vector-effect="none" fill-rule="evenodd" d="M1427.49,2348.52 L1427.56,2348.7 L1427.79,2348.68 L1427.99,2347.99 L1487.45,2314.65 L1485.55,2285.53 L1477.48,2234.77 L1495.22,2185.64 L1479.92,2122.7 L1513.19,2085.95 L1530.94,2077.9 L1541.52,2068.86"/>
<path vector-effect="none" fill-rule="evenodd" d="M1683.15,2276.75 L1683.02,2276.53 L1682.67,2276.7 L1682.23,2278.17 L1668.27,2287.29 L1652.6,2278.89 L1638.16,2271.67 L1631.09,2271.26 L1616.3,2268.76 L1607.73,2264.28 L1596.64,2270.37 L1583.63,2269.95 L1572.54,2272.41 L1570.69,2279.5 L1575.82,2312.91 L1570.25,2333.92 L1539.11,2344.93 L1530.06,2363.18 L1525.9,2366.62 L1526.73,2374.16 L1524.42,2374.95 L1523.69,2376.75 L1523.12,2382.71 L1515.55,2390.41 L1507.79,2393.96 L1497,2395.67 L1488.99,2389.65 L1480.71,2386.58 L1472.92,2383.02 L1464.88,2386.41 L1453.76,2381.52 L1439.04,2366.74 L1438.14,2360.73 L1433.37,2356.37 L1431.3,2352.39 L1429.03,2349.57 L1427.87,2348.81 L1427.34,2348.84 L1427.28,2348.54"/>
<path vector-effect="none" fill-rule="evenodd" d="M1959.9,1102.41 L1951.97,1106.63 L1948.13,1118.01 L1934.43,1112.91 L1908.14,1113.41 L1829.17,1195.97"/>
<path vector-effect="none" fill-rule="evenodd" d="M1959.9,1102.41 L2011,1045.53 L2071.16,1042.98 L2089.99,1030.74 L2108.77,996.162 L2123.88,979.695 L2138.64,959.786 L2136.81,948.036 L2149.92,901.576 L2171.6,859.855 L2183.83,841.922 L2179.57,831.652 L2162.83,801.817 L2152.74,763.493 L2174.6,743.864"/>
<path vector-effect="none" fill-rule="evenodd" d="M2444.16,696.697 L2448.17,695.259 L2444.34,690.207 L2444.19,685.819 L2423.91,674.596 L2413.74,668.621 L2405.79,666.031 L2398.98,658.406 L2398.48,649.582 L2396.88,649.369"/>
<path vector-effect="none" fill-rule="evenodd" d="M2282.03,699.602 L2286.45,694.64 L2289.48,693.776 L2292.09,694.973 L2293.63,694.755 L2294.27,694.168 L2299.37,692.698 L2303.32,691.372 L2307.05,690.378 L2309.47,690.079 L2311.54,688.859 L2312.84,687.961 L2313.21,685.797 L2313.49,684.83 L2319.01,681.469 L2321.42,675.838 L2330.55,669.165 L2331.83,667.906 L2340.02,661.395 L2341.35,660.475 L2345.34,658.261 L2346.21,657.648 L2348.14,657.389 L2349.52,656.742 L2352.16,655.783 L2353.33,654.816 L2365.71,655.59 L2384.68,655.163 L2394.98,654.643 L2395.88,649.457 L2396.64,649.39"/>
<path vector-effect="none" fill-rule="evenodd" d="M2363.92,660.424 L2366.67,656.446 L2395.56,654.996 L2396.19,650.02 L2396.73,649.517"/>
<path vector-effect="none" fill-rule="evenodd" d="M2397.47,658.409 L2396.93,650.075"/>
<path vector-effect="none" fill-rule="evenodd" d="M2719.62,1694.82 L2726.98,1690.82 L2726.73,1687.47 L2727.42,1678.43 L2738.13,1672.72 L2741.77,1671.54 L2741.24,1668.15 L2741.54,1664.31 L2740.12,1663.27 L2735.49,1661.87 L2735.1,1658.25 L2737.08,1655.53 L2736.22,1654.14 L2738.51,1648.96 L2740.41,1648.65 L2742.11,1648.21"/>
<path vector-effect="none" fill-rule="evenodd" d="M2282.18,1952.21 L2282.87,1951.85 L2291.91,1945.93 L2299.2,1943.18 L2311.54,1922.03 L2322.13,1907.1 L2424.67,1778.6 L2432.25,1762.29 L2444.83,1752.2 L2503.61,1677.8 L2505.84,1673.25 L2514.96,1662.57 L2531.08,1640.35 L2543.88,1626.96 L2552.19,1614.71 L2563.52,1599.31 L2570.07,1594.79 L2580.21,1579.38 L2585.89,1554.32 L2613.92,1538.03 L2674.59,1458.91 L2679.51,1443.81 L2680.61,1442.69 L2681.83,1442.21 L2682.23,1442.13 L2682.83,1442.05"/>
<path vector-effect="none" fill-rule="evenodd" d="M2548.69,1457.52 L2500.84,1459.33 L2470.44,1469.29 L2433.99,1444.88 L2389.33,1386.87 L2322.02,1349.04 L2311.92,1349.11"/>
<path vector-effect="none" fill-rule="evenodd" d="M2682.83,1442.05 L2683.55,1441.96 L2687.31,1442.16 L2689.73,1444.44 L2709.21,1444.42 L2724,1455.02 L2733.79,1456.41 L2739.13,1459.8 L2753.91,1462.1 L2769.74,1456.05 L2798.35,1452.95 L2810.14,1454.2 L2826.74,1479.12 L2846.68,1482.82 L2861.2,1469.7 L2877.36,1472.98 L2891.22,1480.79 L2893.89,1482.43 L2911.01,1492.91 L2916.62,1500.39 L2921.29,1512.1 L2932.25,1522.78 L2943.57,1525.03 L2955.8,1544.2 L2960.26,1544.78 L2972.47,1549.3 L2973.82,1550.55 L2974.56,1550.36 L2979.65,1553.92 L2982.14,1554.07 L2982.49,1553.74"/>
<path vector-effect="none" fill-rule="evenodd" d="M2548.69,1457.52 L2581.86,1452.8 L2648.3,1438.48 L2681.6,1440.34 L2682.72,1441.75 L2682.83,1442.05"/>
<path vector-effect="none" fill-rule="evenodd" d="M2986.54,1552.23 L2993.24,1552.56 L2998.59,1560.15 L3002.62,1560.73 L3014.55,1557.55 L3023.71,1561.43 L3030.96,1554.67 L3035.71,1557 L3036.75,1556.91 L3044.53,1559.59 L3050.42,1565.5 L3055.42,1565.12 L3056.14,1565.59 L3060.82,1572.66 L3065.14,1573.1 L3078.65,1559.72 L3111.75,1545.54 L3112.31,1544.14 L3116.41,1542.38 L3167.74,1540.87 L3225.62,1525.21 L3256.12,1531.35 L3257.85,1534.87 L3321.66,1533.77 L3365.7,1524.8 L3383.96,1516.6 L3431.24,1485.84 L3434.41,1485.63 L3435.62,1484.27 L3437.17,1484.16"/>
<path vector-effect="none" fill-rule="evenodd" d="M3438.34,1481.98 L3439.62,1481.9 L3440.91,1480.52 L3441,1478.19 L3440.53,1477.96 L3440.15,1477.39 L3439.47,1469.09 L3438.55,1457.96 L3433.64,1443.13 L3431.39,1438.74 L3431.58,1430.97 L3438.71,1419.2 L3455.54,1372.68 L3460.79,1355.55 L3477.47,1330.63 L3480.17,1320.48 L3466.07,1292.6 L3467.85,1284.97 L3466.87,1280.15 L3466.13,1279.89 L3465.68,1278.26 L3446.55,1208.8 L3445.43,1190.21 L3426.31,1168.55 L3412.62,1139.55 L3395.27,1114.12 L3394.37,1109.69 L3382.33,1092.72 L3375.62,1082.81 L3373.23,1079.32 L3369.29,1077.97 L3365.06,1073.36 L3356.39,1064 L3354.66,1056.52 L3346.11,1047.71 L3325.67,1030.21 L3314.96,1022.89 L3304.2,1005.5 L3293.86,994.421 L3284.5,989.183 L3283.18,988.458 L3279.43,987.625 L3275.88,989.063 L3275.69,989.424 L3271.54,991.181 L3249.01,986.148 L3243.01,978.148 L3228.52,951.91 L3205.56,947.31 L3204.46,947.611 L3192.88,945.218 L3181.51,934.098 L3170.36,923.057 L3166.3,918.931 L3161.01,920.255 L3132.83,910.768 L3118.11,905.958 L3105.17,902.929 L3085.56,890.949 L3074.5,882.066 L3066.34,873.398 L3063.33,866.038 L3054.91,839.414 L3035.42,822.27 L3022.41,818.764 L3011.47,810.972 L2991.56,808.574 L2968.89,802.261 L2948.38,796.339 L2914.96,773.839 L2891.38,751.597 L2876.64,745.801 L2874.35,739.354 L2872.1,733.084 L2865.67,727.815 L2860.59,720.501 L2857.82,711.879 L2852.94,709.186 L2847.24,703.947 L2829.31,696.767 L2829.32,696.765 L2813.64,689.091 L2784.84,689.073 L2773.42,677.939 L2753.7,677.94 L2695.84,709.744 L2693.08,711.649 L2690.84,711.902 L2612.42,728.702 L2605.77,731.914 L2592.41,722.326 L2574.52,717.078 L2569.13,717.229 L2568.13,718.072 L2563.8,717.316 L2563.65,717.026"/>
<path vector-effect="none" fill-rule="evenodd" d="M3496.99,1496.08 L3674.39,1522.93 L3858.8,1534.79"/>
<path vector-effect="none" fill-rule="evenodd" d="M3438.59,1483.53 L3449.61,1482.9 L3459.31,1487.25 L3468.34,1491.78 L3495.96,1495.93 L3496.99,1496.08"/>
<path vector-effect="none" fill-rule="evenodd" d="M1613.33,1505.87 L1614.57,1505.55 L1614.86,1505.57"/>
<path vector-effect="none" fill-rule="evenodd" d="M1613.21,1505.74 L1614.68,1505.36 L1614.93,1505.39"/>
<path vector-effect="none" fill-rule="evenodd" d="M1758.64,2082.53 L1758.67,2082.47 L1758.96,2082.61 L1760.34,2083.64 L1760.8,2083.07 L1760.95,2082.41 L1761.08,2082.25 L1761.05,2082.46"/>
<path vector-effect="none" fill-rule="evenodd" d="M1740.21,1344.34 L1739.2,1338.34 L1735.15,1330.46 L1730.42,1328.08 L1729.56,1328.1"/>
<path vector-effect="none" fill-rule="evenodd" d="M2452.07,1037.15 L2452.27,1042.13 L2453.13,1042.31 L2453.18,1045.36 L2454.95,1053.2 L2456.51,1061.84 L2479.67,1068.37 L2498.47,1073.51 L2519.92,1107.52 L2581.47,1117.86 L2627.25,1147.94 L2663.29,1158.31"/>
<path vector-effect="none" fill-rule="evenodd" d="M2663.03,1158.46 L2662.42,1158.53 L2660.39,1162.87 L2659.98,1174.01 L2661.57,1206.01 L2662.06,1228.52 L2626.84,1236.64 L2605.71,1246.6 L2580.16,1249.13 L2550.03,1212.24 L2544.52,1211.13 L2526.63,1192.84"/>
<path vector-effect="none" fill-rule="evenodd" d="M2983.29,1553.81 L2982.82,1552.92 L2985.13,1551.95 L2997.04,1562.14 L3000.69,1569.07 L3001.59,1568.56 L3022.31,1562.37 L3025.08,1561.54 L3031.8,1544.3 L3050.32,1533.63 L3051.11,1534.62 L3068.72,1525.08 L3075.12,1528.81 L3078.13,1536.56 L3091.29,1534.76 L3099.62,1541.34 L3104.16,1546.37 L3116.09,1541.29 L3149.75,1540.3 L3167.41,1539.78 L3225.25,1524.13 L3255.45,1530.22 L3257.24,1533.8 L3284.8,1533.32 L3321.33,1532.69 L3365.43,1523.7 L3383.76,1515.47 L3408.87,1499.12 L3430.96,1484.75 L3441.25,1484.11 L3444.76,1483.9 L3449.28,1483.63 L3449.55,1483.45 L3454.57,1485.88 L3458.3,1487.56 L3459.41,1488.01"/>
<path vector-effect="none" fill-rule="evenodd" d="M2396.88,649.369 L2421.98,620.929"/>
<path vector-effect="none" fill-rule="evenodd" d="M2448.73,695.256 L2477.87,661.669 L2478.2,661.224"/>
<path vector-effect="none" fill-rule="evenodd" d="M2526.63,1192.84 L2545.86,1254.26 L2538.96,1328.5 L2548.69,1457.52"/>
</g>

<g fill="none" stroke="#000000" stroke-opacity="1" stroke-width="1" stroke-linecap="square" stroke-linejoin="bevel" transform="matrix(11.8081,0,0,11.8081,0,0)"
font-family="MS Shell Dlg 2" font-size="34.375" font-weight="400" font-style="normal" 
>
</g>

<g fill="none" stroke="#000000" stroke-opacity="1" stroke-width="1" stroke-linecap="square" stroke-linejoin="bevel" transform="matrix(11.8081,0,0,11.8081,0,0)"
font-family="MS Shell Dlg 2" font-size="34.375" font-weight="400" font-style="normal" 
>
</g>

<g fill="none" stroke="#000000" stroke-opacity="1" stroke-width="1" stroke-linecap="square" stroke-linejoin="bevel" transform="matrix(11.8081,0,0,11.8081,0,0)"
font-family="MS Shell Dlg 2" font-size="34.375" font-weight="400" font-style="normal" 
>
</g>

<g fill="none" stroke="#000000" stroke-opacity="1" stroke-width="1" stroke-linecap="square" stroke-linejoin="bevel" transform="matrix(1,0,0,1,0,0)"
font-family="MS Shell Dlg 2" font-size="34.375" font-weight="400" font-style="normal" 
>
</g>

<g fill="none" stroke="#000000" stroke-opacity="1" stroke-width="1" stroke-linecap="square" stroke-linejoin="bevel" transform="matrix(11.8081,0,0,11.8081,0,0)"
font-family="MS Shell Dlg 2" font-size="34.375" font-weight="400" font-style="normal" 
>
</g>

<g fill="none" stroke="#000000" stroke-opacity="1" stroke-width="1" stroke-linecap="square" stroke-linejoin="bevel" transform="matrix(11.8081,0,0,11.8081,0,0)"
font-family="MS Shell Dlg 2" font-size="34.375" font-weight="400" font-style="normal" 
>
</g>

<g fill="none" stroke="#000000" stroke-opacity="1" stroke-width="1" stroke-linecap="square" stroke-linejoin="bevel" transform="matrix(11.8081,0,0,11.8081,0,0)"
font-family="MS Shell Dlg 2" font-size="34.375" font-weight="400" font-style="normal" 
>
</g>

<g fill="none" stroke="#000000" stroke-opacity="1" stroke-width="1" stroke-linecap="square" stroke-linejoin="bevel" transform="matrix(11.8081,0,0,11.8081,0,0)"
font-family="MS Shell Dlg 2" font-size="34.375" font-weight="400" font-style="normal" 
>
</g>

<g fill="none" stroke="#000000" stroke-opacity="1" stroke-width="1" stroke-linecap="square" stroke-linejoin="bevel" transform="matrix(1,0,0,1,0,0)"
font-family="MS Shell Dlg 2" font-size="34.375" font-weight="400" font-style="normal" 
>
</g>
</g>
</svg>
